<svg viewBox="0 0 1402 603" fill="none" xmlns="http://www.w3.org/2000/svg">
<rect y="1" width="1402" height="602" rx="70" fill="#F29C1F"/>
<ellipse cx="236" cy="433" rx="168" ry="16" fill="#D9D9D9" fill-opacity="0.48"/>
<rect width="486" height="603" rx="70" fill="white"/>
<path d="M405.206 447.357L105 461.698L96.3809 220.357V169.127C96.3809 164.639 100.02 161 104.508 161H397.079C401.567 161 405.206 164.639 405.206 169.127V217.889L389.333 231.524L405.206 258.648V447.357Z" fill="#D19A6E"/>
<path d="M122.777 266.651C138.927 266.651 147.97 259.758 153.955 255.197C158.538 251.704 160.253 250.397 165.427 250.397C170.602 250.397 172.316 251.704 176.899 255.197C182.883 259.758 191.926 266.651 208.077 266.651C224.229 266.651 233.274 259.759 239.26 255.198C243.845 251.704 245.561 250.397 250.739 250.397C255.909 250.397 257.623 251.704 262.204 255.196C268.187 259.758 277.229 266.651 293.378 266.651C309.532 266.651 318.578 259.76 324.565 255.2C329.153 251.705 330.87 250.397 336.054 250.397C341.247 250.397 342.967 251.706 347.561 255.203C353.55 259.762 362.6 266.651 378.759 266.651C391.16 266.651 399.352 262.596 405.209 258.648V217.889H96.3809V461.699H405.206V437.317H128.889C119.912 437.317 112.635 430.04 112.635 421.063V269.126C112.635 267.285 114.274 265.898 116.096 266.163C118.166 266.463 120.368 266.651 122.777 266.651Z" fill="#C38C66"/>
<path d="M364.571 406.857H258.921C254.433 406.857 250.794 403.218 250.794 398.73V291.032C250.794 286.544 254.433 282.905 258.921 282.905H364.572C369.06 282.905 372.699 286.544 372.699 291.032V398.73C372.698 403.218 369.06 406.857 364.571 406.857Z" fill="#DBEAFF"/>
<path d="M267.048 396.682C262.559 396.682 258.921 393.043 258.921 388.555V282.905H250.794C246.305 282.905 242.667 286.543 242.667 291.032V404.81C242.667 409.298 246.305 412.937 250.794 412.937H333.25L329.75 396.683H267.048V396.682Z" fill="#C3DDFF"/>
<path d="M137.016 291.032V406.857L210.159 396.682V291.032C210.159 286.544 206.52 282.905 202.032 282.905H145.143C140.654 282.905 137.016 286.543 137.016 291.032Z" fill="#DBEAFF"/>
<path d="M421.46 469.825H80.127C75.635 469.825 72 466.19 72 461.698C72 457.206 75.635 453.571 80.127 453.571H421.46C425.952 453.571 429.587 457.206 429.587 461.698C429.587 466.19 425.952 469.825 421.46 469.825Z" fill="#C8C5C9"/>
<path d="M421.46 226.778C421.46 230.785 418.492 233.992 414.567 234.8C399.795 237.841 397.522 250.397 378.755 250.397C362.522 250.397 358.63 241.003 348.316 236.498C345.063 235.077 341.171 227.524 336.051 227.524C331.009 227.524 327.158 235.051 323.935 236.437C313.521 240.917 309.671 250.397 293.375 250.397C277.167 250.397 273.281 241.002 262.982 236.498C259.734 235.077 255.848 227.524 250.737 227.524C245.684 227.524 241.828 235.055 238.602 236.447C228.21 240.931 224.354 250.397 208.076 250.397C191.85 250.397 187.97 240.987 177.649 236.487C174.405 235.073 170.525 227.524 165.425 227.524C160.36 227.524 156.499 235.06 153.268 236.458C142.897 240.947 139.035 250.397 122.775 250.397C104.035 250.397 101.764 237.845 87.016 234.802C83.092 233.992 80.125 230.787 80.125 226.78V201.636C80.125 197.148 83.764 193.509 88.252 193.509H153.27L165 201.524L177.651 193.508H238.604L250.501 201.524L262.985 193.508H323.938L336.626 201.524L348.318 193.508H413.334C417.822 193.508 421.461 197.147 421.461 201.635V226.778H421.46Z" fill="#FFE07D"/>
<path d="M340.19 331.667H397.079C401.567 331.667 405.206 335.306 405.206 339.794V396.683C405.206 401.171 401.567 404.81 397.079 404.81H340.19C335.702 404.81 332.062 401.171 332.062 396.683V339.794C332.062 335.305 335.702 331.667 340.19 331.667Z" fill="#E5646E"/>
<path d="M364.571 388.555C361.492 388.555 358.682 386.817 357.301 384.063L349.174 367.809C347.912 365.293 348.047 362.301 349.531 359.904C351.015 357.507 353.626 356.047 356.444 356.047H372.698C375.515 356.047 378.127 357.507 379.611 359.904C381.095 362.301 381.23 365.293 379.968 367.809L371.841 384.063C370.46 386.817 367.651 388.555 364.571 388.555Z" fill="#FFE09F"/>
<path d="M348.317 396.682C343.828 396.682 340.19 393.043 340.19 388.555V331.667H332.063C327.574 331.667 323.936 335.305 323.936 339.794V404.81C323.936 409.298 327.574 412.937 332.063 412.937H397.079C401.568 412.937 405.206 409.298 405.206 404.81V396.683H348.317V396.682Z" fill="#DB4655"/>
<path d="M145.143 372.301V282.904H137.016C132.528 282.904 128.889 286.543 128.889 291.031V412.936H210.159V396.682H169.524C156.059 396.682 145.143 385.767 145.143 372.301Z" fill="#C3DDFF"/>
<path d="M153.27 236.458C156.505 235.055 160.351 234.143 165.426 234.143C170.536 234.143 174.403 235.066 177.651 236.485V193.508H153.27V236.458Z" fill="#FF8086"/>
<path d="M238.603 236.448C241.833 235.051 245.673 234.143 250.737 234.143C255.859 234.143 259.732 235.069 262.984 236.495V193.508H238.603V236.448V236.448Z" fill="#FF8086"/>
<path d="M323.937 236.439C327.164 235.047 330.998 234.143 336.052 234.143C341.182 234.143 345.061 235.07 348.318 236.496V193.509H323.937V236.439V236.439Z" fill="#FF8086"/>
<path d="M128.889 412.936V437.317L144.25 447.607H198.75L210.159 437.317V412.936H128.889Z" fill="#C8C5C9"/>
<path d="M210.159 437.317H128.889V453.571H210.159V437.317Z" fill="#B6B1B7"/>
<path d="M604.44 221.16V239.8H624.76V245.8H604.44V265H627.16V271H597.16V215.16H627.16V221.16H604.44ZM659.536 226.36C664.869 226.36 669.189 227.987 672.496 231.24C675.802 234.44 677.456 239.08 677.456 245.16V271H670.256V246.2C670.256 241.827 669.162 238.493 666.976 236.2C664.789 233.853 661.802 232.68 658.016 232.68C654.176 232.68 651.109 233.88 648.816 236.28C646.576 238.68 645.456 242.173 645.456 246.76V271H638.176V227.16H645.456V233.4C646.896 231.16 648.842 229.427 651.296 228.2C653.802 226.973 656.549 226.36 659.536 226.36ZM698.228 233.16V259C698.228 261.133 698.681 262.653 699.588 263.56C700.494 264.413 702.068 264.84 704.307 264.84H709.668V271H703.108C699.054 271 696.014 270.067 693.988 268.2C691.961 266.333 690.948 263.267 690.948 259V233.16H685.268V227.16H690.948V216.12H698.228V227.16H709.668V233.16H698.228ZM725.768 234.28C727.048 231.773 728.861 229.827 731.208 228.44C733.608 227.053 736.515 226.36 739.928 226.36V233.88H738.008C729.848 233.88 725.768 238.307 725.768 247.16V271H718.488V227.16H725.768V234.28ZM788.332 247.4C788.332 248.787 788.252 250.253 788.092 251.8H753.052C753.319 256.12 754.785 259.507 757.452 261.96C760.172 264.36 763.452 265.56 767.292 265.56C770.439 265.56 773.052 264.84 775.132 263.4C777.265 261.907 778.759 259.933 779.612 257.48H787.452C786.279 261.693 783.932 265.133 780.412 267.8C776.892 270.413 772.519 271.72 767.292 271.72C763.132 271.72 759.399 270.787 756.092 268.92C752.839 267.053 750.279 264.413 748.412 261C746.545 257.533 745.612 253.533 745.612 249C745.612 244.467 746.519 240.493 748.332 237.08C750.145 233.667 752.679 231.053 755.932 229.24C759.239 227.373 763.025 226.44 767.292 226.44C771.452 226.44 775.132 227.347 778.332 229.16C781.532 230.973 783.985 233.48 785.692 236.68C787.452 239.827 788.332 243.4 788.332 247.4ZM780.812 245.88C780.812 243.107 780.199 240.733 778.972 238.76C777.745 236.733 776.065 235.213 773.932 234.2C771.852 233.133 769.532 232.6 766.972 232.6C763.292 232.6 760.145 233.773 757.532 236.12C754.972 238.467 753.505 241.72 753.132 245.88H780.812ZM816.021 226.44C819.808 226.44 823.115 227.267 825.941 228.92C828.821 230.573 830.955 232.653 832.341 235.16V227.16H839.701V271.96C839.701 275.96 838.848 279.507 837.141 282.6C835.435 285.747 832.981 288.2 829.781 289.96C826.635 291.72 822.955 292.6 818.741 292.6C812.981 292.6 808.181 291.24 804.341 288.52C800.501 285.8 798.235 282.093 797.541 277.4H804.741C805.541 280.067 807.195 282.2 809.701 283.8C812.208 285.453 815.221 286.28 818.741 286.28C822.741 286.28 825.995 285.027 828.501 282.52C831.061 280.013 832.341 276.493 832.341 271.96V262.76C830.901 265.32 828.768 267.453 825.941 269.16C823.115 270.867 819.808 271.72 816.021 271.72C812.128 271.72 808.581 270.76 805.381 268.84C802.235 266.92 799.755 264.227 797.941 260.76C796.128 257.293 795.221 253.347 795.221 248.92C795.221 244.44 796.128 240.52 797.941 237.16C799.755 233.747 802.235 231.107 805.381 229.24C808.581 227.373 812.128 226.44 816.021 226.44ZM832.341 249C832.341 245.693 831.675 242.813 830.341 240.36C829.008 237.907 827.195 236.04 824.901 234.76C822.661 233.427 820.181 232.76 817.461 232.76C814.741 232.76 812.261 233.4 810.021 234.68C807.781 235.96 805.995 237.827 804.661 240.28C803.328 242.733 802.661 245.613 802.661 248.92C802.661 252.28 803.328 255.213 804.661 257.72C805.995 260.173 807.781 262.067 810.021 263.4C812.261 264.68 814.741 265.32 817.461 265.32C820.181 265.32 822.661 264.68 824.901 263.4C827.195 262.067 829.008 260.173 830.341 257.72C831.675 255.213 832.341 252.307 832.341 249ZM849.284 248.92C849.284 244.44 850.19 240.52 852.004 237.16C853.817 233.747 856.297 231.107 859.444 229.24C862.644 227.373 866.19 226.44 870.084 226.44C873.924 226.44 877.257 227.267 880.084 228.92C882.91 230.573 885.017 232.653 886.404 235.16V227.16H893.764V271H886.404V262.84C884.964 265.4 882.804 267.533 879.924 269.24C877.097 270.893 873.79 271.72 870.004 271.72C866.11 271.72 862.59 270.76 859.444 268.84C856.297 266.92 853.817 264.227 852.004 260.76C850.19 257.293 849.284 253.347 849.284 248.92ZM886.404 249C886.404 245.693 885.737 242.813 884.404 240.36C883.07 237.907 881.257 236.04 878.964 234.76C876.724 233.427 874.244 232.76 871.524 232.76C868.804 232.76 866.324 233.4 864.084 234.68C861.844 235.96 860.057 237.827 858.724 240.28C857.39 242.733 856.724 245.613 856.724 248.92C856.724 252.28 857.39 255.213 858.724 257.72C860.057 260.173 861.844 262.067 864.084 263.4C866.324 264.68 868.804 265.32 871.524 265.32C874.244 265.32 876.724 264.68 878.964 263.4C881.257 262.067 883.07 260.173 884.404 257.72C885.737 255.213 886.404 252.307 886.404 249ZM970.194 271L962.914 263.64C960.194 266.467 957.288 268.573 954.194 269.96C951.101 271.293 947.608 271.96 943.714 271.96C939.874 271.96 936.461 271.267 933.474 269.88C930.541 268.493 928.248 266.52 926.594 263.96C924.994 261.4 924.194 258.413 924.194 255C924.194 251.107 925.288 247.693 927.474 244.76C929.714 241.773 932.994 239.427 937.314 237.72C935.608 235.693 934.381 233.827 933.634 232.12C932.888 230.413 932.514 228.547 932.514 226.52C932.514 224.173 933.101 222.067 934.274 220.2C935.501 218.28 937.234 216.787 939.474 215.72C941.714 214.653 944.301 214.12 947.234 214.12C950.114 214.12 952.621 214.68 954.754 215.8C956.888 216.92 958.488 218.493 959.554 220.52C960.621 222.493 961.101 224.707 960.994 227.16H953.714C953.768 224.973 953.154 223.267 951.874 222.04C950.594 220.76 948.941 220.12 946.914 220.12C944.781 220.12 943.048 220.733 941.714 221.96C940.434 223.133 939.794 224.653 939.794 226.52C939.794 228.12 940.221 229.667 941.074 231.16C941.981 232.653 943.474 234.493 945.554 236.68L962.194 253.4L963.634 251.16L969.074 242.04H976.914L970.354 253.4C969.448 255 968.381 256.68 967.154 258.44L979.714 271H970.194ZM943.714 265.72C946.594 265.72 949.181 265.16 951.474 264.04C953.821 262.92 956.034 261.187 958.114 258.84L941.714 242.36C934.888 244.973 931.474 249.107 931.474 254.76C931.474 257.907 932.594 260.52 934.834 262.6C937.128 264.68 940.088 265.72 943.714 265.72ZM1015.14 234.28C1016.42 231.773 1018.24 229.827 1020.58 228.44C1022.98 227.053 1025.89 226.36 1029.3 226.36V233.88H1027.38C1019.22 233.88 1015.14 238.307 1015.14 247.16V271H1007.86V227.16H1015.14V234.28ZM1077.71 247.4C1077.71 248.787 1077.63 250.253 1077.47 251.8H1042.43C1042.69 256.12 1044.16 259.507 1046.83 261.96C1049.55 264.36 1052.83 265.56 1056.67 265.56C1059.81 265.56 1062.43 264.84 1064.51 263.4C1066.64 261.907 1068.13 259.933 1068.99 257.48H1076.83C1075.65 261.693 1073.31 265.133 1069.79 267.8C1066.27 270.413 1061.89 271.72 1056.67 271.72C1052.51 271.72 1048.77 270.787 1045.47 268.92C1042.21 267.053 1039.65 264.413 1037.79 261C1035.92 257.533 1034.99 253.533 1034.99 249C1034.99 244.467 1035.89 240.493 1037.71 237.08C1039.52 233.667 1042.05 231.053 1045.31 229.24C1048.61 227.373 1052.4 226.44 1056.67 226.44C1060.83 226.44 1064.51 227.347 1067.71 229.16C1070.91 230.973 1073.36 233.48 1075.07 236.68C1076.83 239.827 1077.71 243.4 1077.71 247.4ZM1070.19 245.88C1070.19 243.107 1069.57 240.733 1068.35 238.76C1067.12 236.733 1065.44 235.213 1063.31 234.2C1061.23 233.133 1058.91 232.6 1056.35 232.6C1052.67 232.6 1049.52 233.773 1046.91 236.12C1044.35 238.467 1042.88 241.72 1042.51 245.88H1070.19ZM1103.64 264.28L1117.24 227.16H1125L1107.8 271H1099.32L1082.12 227.16H1089.96L1103.64 264.28ZM1135.92 220.04C1134.53 220.04 1133.36 219.56 1132.4 218.6C1131.44 217.64 1130.96 216.467 1130.96 215.08C1130.96 213.693 1131.44 212.52 1132.4 211.56C1133.36 210.6 1134.53 210.12 1135.92 210.12C1137.25 210.12 1138.37 210.6 1139.28 211.56C1140.24 212.52 1140.72 213.693 1140.72 215.08C1140.72 216.467 1140.24 217.64 1139.28 218.6C1138.37 219.56 1137.25 220.04 1135.92 220.04ZM1139.44 227.16V271H1132.16V227.16H1139.44ZM1167.37 271.72C1164.01 271.72 1160.99 271.16 1158.33 270.04C1155.66 268.867 1153.55 267.267 1152.01 265.24C1150.46 263.16 1149.61 260.787 1149.45 258.12H1156.97C1157.18 260.307 1158.19 262.093 1160.01 263.48C1161.87 264.867 1164.3 265.56 1167.29 265.56C1170.06 265.56 1172.25 264.947 1173.85 263.72C1175.45 262.493 1176.25 260.947 1176.25 259.08C1176.25 257.16 1175.39 255.747 1173.69 254.84C1171.98 253.88 1169.34 252.947 1165.77 252.04C1162.51 251.187 1159.85 250.333 1157.77 249.48C1155.74 248.573 1153.98 247.267 1152.49 245.56C1151.05 243.8 1150.33 241.507 1150.33 238.68C1150.33 236.44 1150.99 234.387 1152.33 232.52C1153.66 230.653 1155.55 229.187 1158.01 228.12C1160.46 227 1163.26 226.44 1166.41 226.44C1171.26 226.44 1175.18 227.667 1178.17 230.12C1181.15 232.573 1182.75 235.933 1182.97 240.2H1175.69C1175.53 237.907 1174.59 236.067 1172.89 234.68C1171.23 233.293 1168.99 232.6 1166.17 232.6C1163.55 232.6 1161.47 233.16 1159.93 234.28C1158.38 235.4 1157.61 236.867 1157.61 238.68C1157.61 240.12 1158.06 241.32 1158.97 242.28C1159.93 243.187 1161.1 243.933 1162.49 244.52C1163.93 245.053 1165.9 245.667 1168.41 246.36C1171.55 247.213 1174.11 248.067 1176.09 248.92C1178.06 249.72 1179.74 250.947 1181.13 252.6C1182.57 254.253 1183.31 256.413 1183.37 259.08C1183.37 261.48 1182.7 263.64 1181.37 265.56C1180.03 267.48 1178.14 269 1175.69 270.12C1173.29 271.187 1170.51 271.72 1167.37 271.72ZM1197.4 220.04C1196.02 220.04 1194.84 219.56 1193.88 218.6C1192.92 217.64 1192.44 216.467 1192.44 215.08C1192.44 213.693 1192.92 212.52 1193.88 211.56C1194.84 210.6 1196.02 210.12 1197.4 210.12C1198.74 210.12 1199.86 210.6 1200.76 211.56C1201.72 212.52 1202.2 213.693 1202.2 215.08C1202.2 216.467 1201.72 217.64 1200.76 218.6C1199.86 219.56 1198.74 220.04 1197.4 220.04ZM1200.92 227.16V271H1193.64V227.16H1200.92ZM1232.45 271.72C1228.35 271.72 1224.61 270.787 1221.25 268.92C1217.95 267.053 1215.33 264.413 1213.41 261C1211.55 257.533 1210.61 253.533 1210.61 249C1210.61 244.52 1211.57 240.573 1213.49 237.16C1215.47 233.693 1218.13 231.053 1221.49 229.24C1224.85 227.373 1228.61 226.44 1232.77 226.44C1236.93 226.44 1240.69 227.373 1244.05 229.24C1247.41 231.053 1250.05 233.667 1251.97 237.08C1253.95 240.493 1254.93 244.467 1254.93 249C1254.93 253.533 1253.92 257.533 1251.89 261C1249.92 264.413 1247.23 267.053 1243.81 268.92C1240.4 270.787 1236.61 271.72 1232.45 271.72ZM1232.45 265.32C1235.07 265.32 1237.52 264.707 1239.81 263.48C1242.11 262.253 1243.95 260.413 1245.33 257.96C1246.77 255.507 1247.49 252.52 1247.49 249C1247.49 245.48 1246.8 242.493 1245.41 240.04C1244.03 237.587 1242.21 235.773 1239.97 234.6C1237.73 233.373 1235.31 232.76 1232.69 232.76C1230.03 232.76 1227.57 233.373 1225.33 234.6C1223.15 235.773 1221.39 237.587 1220.05 240.04C1218.72 242.493 1218.05 245.48 1218.05 249C1218.05 252.573 1218.69 255.587 1219.97 258.04C1221.31 260.493 1223.07 262.333 1225.25 263.56C1227.44 264.733 1229.84 265.32 1232.45 265.32ZM1240.61 214.2L1223.57 223.32V217.88L1240.61 207.88V214.2ZM1285.86 226.36C1291.2 226.36 1295.52 227.987 1298.82 231.24C1302.13 234.44 1303.78 239.08 1303.78 245.16V271H1296.58V246.2C1296.58 241.827 1295.49 238.493 1293.3 236.2C1291.12 233.853 1288.13 232.68 1284.34 232.68C1280.5 232.68 1277.44 233.88 1275.14 236.28C1272.9 238.68 1271.78 242.173 1271.78 246.76V271H1264.5V227.16H1271.78V233.4C1273.22 231.16 1275.17 229.427 1277.62 228.2C1280.13 226.973 1282.88 226.36 1285.86 226.36Z" fill="white"/>
<path d="M578.72 336.64C579.36 335.387 580.267 334.413 581.44 333.72C582.64 333.027 584.093 332.68 585.8 332.68V336.44H584.84C580.76 336.44 578.72 338.653 578.72 343.08V355H575.08V333.08H578.72V336.64ZM610.002 343.2C610.002 343.893 609.962 344.627 609.882 345.4H592.362C592.495 347.56 593.229 349.253 594.562 350.48C595.922 351.68 597.562 352.28 599.482 352.28C601.055 352.28 602.362 351.92 603.402 351.2C604.469 350.453 605.215 349.467 605.642 348.24H609.562C608.975 350.347 607.802 352.067 606.042 353.4C604.282 354.707 602.095 355.36 599.482 355.36C597.402 355.36 595.535 354.893 593.882 353.96C592.255 353.027 590.975 351.707 590.042 350C589.109 348.267 588.642 346.267 588.642 344C588.642 341.733 589.095 339.747 590.002 338.04C590.909 336.333 592.175 335.027 593.802 334.12C595.455 333.187 597.349 332.72 599.482 332.72C601.562 332.72 603.402 333.173 605.002 334.08C606.602 334.987 607.829 336.24 608.682 337.84C609.562 339.413 610.002 341.2 610.002 343.2ZM606.242 342.44C606.242 341.053 605.935 339.867 605.322 338.88C604.709 337.867 603.869 337.107 602.802 336.6C601.762 336.067 600.602 335.8 599.322 335.8C597.482 335.8 595.909 336.387 594.602 337.56C593.322 338.733 592.589 340.36 592.402 342.44H606.242ZM622.967 351.64L629.767 333.08H633.647L625.047 355H620.807L612.207 333.08H616.127L622.967 351.64ZM639.108 329.52C638.415 329.52 637.828 329.28 637.348 328.8C636.868 328.32 636.628 327.733 636.628 327.04C636.628 326.347 636.868 325.76 637.348 325.28C637.828 324.8 638.415 324.56 639.108 324.56C639.775 324.56 640.335 324.8 640.788 325.28C641.268 325.76 641.508 326.347 641.508 327.04C641.508 327.733 641.268 328.32 640.788 328.8C640.335 329.28 639.775 329.52 639.108 329.52ZM640.868 333.08V355H637.228V333.08H640.868ZM654.832 355.36C653.152 355.36 651.646 355.08 650.312 354.52C648.979 353.933 647.926 353.133 647.152 352.12C646.379 351.08 645.952 349.893 645.872 348.56H649.632C649.739 349.653 650.246 350.547 651.152 351.24C652.086 351.933 653.299 352.28 654.792 352.28C656.179 352.28 657.272 351.973 658.072 351.36C658.872 350.747 659.272 349.973 659.272 349.04C659.272 348.08 658.846 347.373 657.992 346.92C657.139 346.44 655.819 345.973 654.032 345.52C652.406 345.093 651.072 344.667 650.032 344.24C649.019 343.787 648.139 343.133 647.392 342.28C646.672 341.4 646.312 340.253 646.312 338.84C646.312 337.72 646.646 336.693 647.312 335.76C647.979 334.827 648.926 334.093 650.152 333.56C651.379 333 652.779 332.72 654.352 332.72C656.779 332.72 658.739 333.333 660.232 334.56C661.726 335.787 662.526 337.467 662.632 339.6H658.992C658.912 338.453 658.446 337.533 657.592 336.84C656.766 336.147 655.646 335.8 654.232 335.8C652.926 335.8 651.886 336.08 651.112 336.64C650.339 337.2 649.952 337.933 649.952 338.84C649.952 339.56 650.179 340.16 650.632 340.64C651.112 341.093 651.699 341.467 652.392 341.76C653.112 342.027 654.099 342.333 655.352 342.68C656.926 343.107 658.206 343.533 659.192 343.96C660.179 344.36 661.019 344.973 661.712 345.8C662.432 346.627 662.806 347.707 662.832 349.04C662.832 350.24 662.499 351.32 661.832 352.28C661.166 353.24 660.219 354 658.992 354.56C657.792 355.093 656.406 355.36 654.832 355.36ZM666.611 343.96C666.611 341.72 667.064 339.76 667.971 338.08C668.877 336.373 670.117 335.053 671.691 334.12C673.291 333.187 675.064 332.72 677.011 332.72C678.931 332.72 680.597 333.133 682.011 333.96C683.424 334.787 684.477 335.827 685.171 337.08V333.08H688.851V355H685.171V350.92C684.451 352.2 683.371 353.267 681.931 354.12C680.517 354.947 678.864 355.36 676.971 355.36C675.024 355.36 673.264 354.88 671.691 353.92C670.117 352.96 668.877 351.613 667.971 349.88C667.064 348.147 666.611 346.173 666.611 343.96ZM685.171 344C685.171 342.347 684.837 340.907 684.171 339.68C683.504 338.453 682.597 337.52 681.451 336.88C680.331 336.213 679.091 335.88 677.731 335.88C676.371 335.88 675.131 336.2 674.011 336.84C672.891 337.48 671.997 338.413 671.331 339.64C670.664 340.867 670.331 342.307 670.331 343.96C670.331 345.64 670.664 347.107 671.331 348.36C671.997 349.587 672.891 350.533 674.011 351.2C675.131 351.84 676.371 352.16 677.731 352.16C679.091 352.16 680.331 351.84 681.451 351.2C682.597 350.533 683.504 349.587 684.171 348.36C684.837 347.107 685.171 345.653 685.171 344ZM721.362 332.68C723.069 332.68 724.589 333.04 725.922 333.76C727.255 334.453 728.309 335.507 729.082 336.92C729.855 338.333 730.242 340.053 730.242 342.08V355H726.642V342.6C726.642 340.413 726.095 338.747 725.002 337.6C723.935 336.427 722.482 335.84 720.642 335.84C718.749 335.84 717.242 336.453 716.122 337.68C715.002 338.88 714.442 340.627 714.442 342.92V355H710.842V342.6C710.842 340.413 710.295 338.747 709.202 337.6C708.135 336.427 706.682 335.84 704.842 335.84C702.949 335.84 701.442 336.453 700.322 337.68C699.202 338.88 698.642 340.627 698.642 342.92V355H695.002V333.08H698.642V336.24C699.362 335.093 700.322 334.213 701.522 333.6C702.749 332.987 704.095 332.68 705.562 332.68C707.402 332.68 709.029 333.093 710.442 333.92C711.855 334.747 712.909 335.96 713.602 337.56C714.215 336.013 715.229 334.813 716.642 333.96C718.055 333.107 719.629 332.68 721.362 332.68ZM745.773 355.36C743.719 355.36 741.853 354.893 740.173 353.96C738.519 353.027 737.213 351.707 736.253 350C735.319 348.267 734.853 346.267 734.853 344C734.853 341.76 735.333 339.787 736.293 338.08C737.279 336.347 738.613 335.027 740.293 334.12C741.973 333.187 743.853 332.72 745.933 332.72C748.013 332.72 749.893 333.187 751.573 334.12C753.253 335.027 754.573 336.333 755.533 338.04C756.519 339.747 757.013 341.733 757.013 344C757.013 346.267 756.506 348.267 755.493 350C754.506 351.707 753.159 353.027 751.453 353.96C749.746 354.893 747.853 355.36 745.773 355.36ZM745.773 352.16C747.079 352.16 748.306 351.853 749.453 351.24C750.599 350.627 751.519 349.707 752.213 348.48C752.933 347.253 753.293 345.76 753.293 344C753.293 342.24 752.946 340.747 752.253 339.52C751.559 338.293 750.653 337.387 749.533 336.8C748.413 336.187 747.199 335.88 745.893 335.88C744.559 335.88 743.333 336.187 742.213 336.8C741.119 337.387 740.239 338.293 739.573 339.52C738.906 340.747 738.573 342.24 738.573 344C738.573 345.787 738.893 347.293 739.533 348.52C740.199 349.747 741.079 350.667 742.173 351.28C743.266 351.867 744.466 352.16 745.773 352.16ZM769.559 355.36C767.879 355.36 766.372 355.08 765.039 354.52C763.705 353.933 762.652 353.133 761.879 352.12C761.105 351.08 760.679 349.893 760.599 348.56H764.359C764.465 349.653 764.972 350.547 765.879 351.24C766.812 351.933 768.025 352.28 769.519 352.28C770.905 352.28 771.999 351.973 772.799 351.36C773.599 350.747 773.999 349.973 773.999 349.04C773.999 348.08 773.572 347.373 772.719 346.92C771.865 346.44 770.545 345.973 768.759 345.52C767.132 345.093 765.799 344.667 764.759 344.24C763.745 343.787 762.865 343.133 762.119 342.28C761.399 341.4 761.039 340.253 761.039 338.84C761.039 337.72 761.372 336.693 762.039 335.76C762.705 334.827 763.652 334.093 764.879 333.56C766.105 333 767.505 332.72 769.079 332.72C771.505 332.72 773.465 333.333 774.959 334.56C776.452 335.787 777.252 337.467 777.359 339.6H773.719C773.639 338.453 773.172 337.533 772.319 336.84C771.492 336.147 770.372 335.8 768.959 335.8C767.652 335.8 766.612 336.08 765.839 336.64C765.065 337.2 764.679 337.933 764.679 338.84C764.679 339.56 764.905 340.16 765.359 340.64C765.839 341.093 766.425 341.467 767.119 341.76C767.839 342.027 768.825 342.333 770.079 342.68C771.652 343.107 772.932 343.533 773.919 343.96C774.905 344.36 775.745 344.973 776.439 345.8C777.159 346.627 777.532 347.707 777.559 349.04C777.559 350.24 777.225 351.32 776.559 352.28C775.892 353.24 774.945 354 773.719 354.56C772.519 355.093 771.132 355.36 769.559 355.36ZM797.001 325.4V355H793.361V325.4H797.001ZM801.845 343.96C801.845 341.72 802.298 339.76 803.205 338.08C804.112 336.373 805.352 335.053 806.925 334.12C808.525 333.187 810.298 332.72 812.245 332.72C814.165 332.72 815.832 333.133 817.245 333.96C818.658 334.787 819.712 335.827 820.405 337.08V333.08H824.085V355H820.405V350.92C819.685 352.2 818.605 353.267 817.165 354.12C815.752 354.947 814.098 355.36 812.205 355.36C810.258 355.36 808.498 354.88 806.925 353.92C805.352 352.96 804.112 351.613 803.205 349.88C802.298 348.147 801.845 346.173 801.845 343.96ZM820.405 344C820.405 342.347 820.072 340.907 819.405 339.68C818.738 338.453 817.832 337.52 816.685 336.88C815.565 336.213 814.325 335.88 812.965 335.88C811.605 335.88 810.365 336.2 809.245 336.84C808.125 337.48 807.232 338.413 806.565 339.64C805.898 340.867 805.565 342.307 805.565 343.96C805.565 345.64 805.898 347.107 806.565 348.36C807.232 349.587 808.125 350.533 809.245 351.2C810.365 351.84 811.605 352.16 812.965 352.16C814.325 352.16 815.565 351.84 816.685 351.2C817.832 350.533 818.738 349.587 819.405 348.36C820.072 347.107 820.405 345.653 820.405 344ZM837.996 355.36C836.316 355.36 834.81 355.08 833.476 354.52C832.143 353.933 831.09 353.133 830.316 352.12C829.543 351.08 829.116 349.893 829.036 348.56H832.796C832.903 349.653 833.41 350.547 834.316 351.24C835.25 351.933 836.463 352.28 837.956 352.28C839.343 352.28 840.436 351.973 841.236 351.36C842.036 350.747 842.436 349.973 842.436 349.04C842.436 348.08 842.01 347.373 841.156 346.92C840.303 346.44 838.983 345.973 837.196 345.52C835.57 345.093 834.236 344.667 833.196 344.24C832.183 343.787 831.303 343.133 830.556 342.28C829.836 341.4 829.476 340.253 829.476 338.84C829.476 337.72 829.81 336.693 830.476 335.76C831.143 334.827 832.09 334.093 833.316 333.56C834.543 333 835.943 332.72 837.516 332.72C839.943 332.72 841.903 333.333 843.396 334.56C844.89 335.787 845.69 337.467 845.796 339.6H842.156C842.076 338.453 841.61 337.533 840.756 336.84C839.93 336.147 838.81 335.8 837.396 335.8C836.09 335.8 835.05 336.08 834.276 336.64C833.503 337.2 833.116 337.933 833.116 338.84C833.116 339.56 833.343 340.16 833.796 340.64C834.276 341.093 834.863 341.467 835.556 341.76C836.276 342.027 837.263 342.333 838.516 342.68C840.09 343.107 841.37 343.533 842.356 343.96C843.343 344.36 844.183 344.973 844.876 345.8C845.596 346.627 845.97 347.707 845.996 349.04C845.996 350.24 845.663 351.32 844.996 352.28C844.33 353.24 843.383 354 842.156 354.56C840.956 355.093 839.57 355.36 837.996 355.36ZM881.799 343.2C881.799 343.893 881.759 344.627 881.679 345.4H864.159C864.292 347.56 865.025 349.253 866.359 350.48C867.719 351.68 869.359 352.28 871.279 352.28C872.852 352.28 874.159 351.92 875.199 351.2C876.265 350.453 877.012 349.467 877.439 348.24H881.359C880.772 350.347 879.599 352.067 877.839 353.4C876.079 354.707 873.892 355.36 871.279 355.36C869.199 355.36 867.332 354.893 865.679 353.96C864.052 353.027 862.772 351.707 861.839 350C860.905 348.267 860.439 346.267 860.439 344C860.439 341.733 860.892 339.747 861.799 338.04C862.705 336.333 863.972 335.027 865.599 334.12C867.252 333.187 869.145 332.72 871.279 332.72C873.359 332.72 875.199 333.173 876.799 334.08C878.399 334.987 879.625 336.24 880.479 337.84C881.359 339.413 881.799 341.2 881.799 343.2ZM878.039 342.44C878.039 341.053 877.732 339.867 877.119 338.88C876.505 337.867 875.665 337.107 874.599 336.6C873.559 336.067 872.399 335.8 871.119 335.8C869.279 335.8 867.705 336.387 866.399 337.56C865.119 338.733 864.385 340.36 864.199 342.44H878.039ZM897.283 332.68C899.95 332.68 902.11 333.493 903.763 335.12C905.417 336.72 906.243 339.04 906.243 342.08V355H902.643V342.6C902.643 340.413 902.097 338.747 901.003 337.6C899.91 336.427 898.417 335.84 896.523 335.84C894.603 335.84 893.07 336.44 891.923 337.64C890.803 338.84 890.243 340.587 890.243 342.88V355H886.603V333.08H890.243V336.2C890.963 335.08 891.937 334.213 893.163 333.6C894.417 332.987 895.79 332.68 897.283 332.68ZM916.629 336.08V349C916.629 350.067 916.856 350.827 917.309 351.28C917.763 351.707 918.549 351.92 919.669 351.92H922.349V355H919.069C917.043 355 915.523 354.533 914.509 353.6C913.496 352.667 912.989 351.133 912.989 349V336.08H910.149V333.08H912.989V327.56H916.629V333.08H922.349V336.08H916.629ZM930.4 336.64C931.04 335.387 931.946 334.413 933.12 333.72C934.32 333.027 935.773 332.68 937.48 332.68V336.44H936.52C932.44 336.44 930.4 338.653 930.4 343.08V355H926.76V333.08H930.4V336.64ZM961.682 343.2C961.682 343.893 961.642 344.627 961.562 345.4H944.042C944.175 347.56 944.908 349.253 946.242 350.48C947.602 351.68 949.242 352.28 951.162 352.28C952.735 352.28 954.042 351.92 955.082 351.2C956.148 350.453 956.895 349.467 957.322 348.24H961.242C960.655 350.347 959.482 352.067 957.722 353.4C955.962 354.707 953.775 355.36 951.162 355.36C949.082 355.36 947.215 354.893 945.562 353.96C943.935 353.027 942.655 351.707 941.722 350C940.788 348.267 940.322 346.267 940.322 344C940.322 341.733 940.775 339.747 941.682 338.04C942.588 336.333 943.855 335.027 945.482 334.12C947.135 333.187 949.028 332.72 951.162 332.72C953.242 332.72 955.082 333.173 956.682 334.08C958.282 334.987 959.508 336.24 960.362 337.84C961.242 339.413 961.682 341.2 961.682 343.2ZM957.922 342.44C957.922 341.053 957.615 339.867 957.002 338.88C956.388 337.867 955.548 337.107 954.482 336.6C953.442 336.067 952.282 335.8 951.002 335.8C949.162 335.8 947.588 336.387 946.282 337.56C945.002 338.733 944.268 340.36 944.082 342.44H957.922ZM975.526 332.72C977.42 332.72 979.073 333.133 980.486 333.96C981.926 334.787 982.993 335.827 983.686 337.08V333.08H987.366V355.48C987.366 357.48 986.94 359.253 986.086 360.8C985.233 362.373 984.006 363.6 982.406 364.48C980.833 365.36 978.993 365.8 976.886 365.8C974.006 365.8 971.606 365.12 969.686 363.76C967.766 362.4 966.633 360.547 966.286 358.2H969.886C970.286 359.533 971.113 360.6 972.366 361.4C973.62 362.227 975.126 362.64 976.886 362.64C978.886 362.64 980.513 362.013 981.766 360.76C983.046 359.507 983.686 357.747 983.686 355.48V350.88C982.966 352.16 981.9 353.227 980.486 354.08C979.073 354.933 977.42 355.36 975.526 355.36C973.58 355.36 971.806 354.88 970.206 353.92C968.633 352.96 967.393 351.613 966.486 349.88C965.58 348.147 965.126 346.173 965.126 343.96C965.126 341.72 965.58 339.76 966.486 338.08C967.393 336.373 968.633 335.053 970.206 334.12C971.806 333.187 973.58 332.72 975.526 332.72ZM983.686 344C983.686 342.347 983.353 340.907 982.686 339.68C982.02 338.453 981.113 337.52 979.966 336.88C978.846 336.213 977.606 335.88 976.246 335.88C974.886 335.88 973.646 336.2 972.526 336.84C971.406 337.48 970.513 338.413 969.846 339.64C969.18 340.867 968.846 342.307 968.846 343.96C968.846 345.64 969.18 347.107 969.846 348.36C970.513 349.587 971.406 350.533 972.526 351.2C973.646 351.84 974.886 352.16 976.246 352.16C977.606 352.16 978.846 351.84 979.966 351.2C981.113 350.533 982.02 349.587 982.686 348.36C983.353 347.107 983.686 345.653 983.686 344ZM992.158 343.96C992.158 341.72 992.611 339.76 993.518 338.08C994.424 336.373 995.664 335.053 997.238 334.12C998.838 333.187 1000.61 332.72 1002.56 332.72C1004.48 332.72 1006.14 333.133 1007.56 333.96C1008.97 334.787 1010.02 335.827 1010.72 337.08V333.08H1014.4V355H1010.72V350.92C1010 352.2 1008.92 353.267 1007.48 354.12C1006.06 354.947 1004.41 355.36 1002.52 355.36C1000.57 355.36 998.811 354.88 997.238 353.92C995.664 352.96 994.424 351.613 993.518 349.88C992.611 348.147 992.158 346.173 992.158 343.96ZM1010.72 344C1010.72 342.347 1010.38 340.907 1009.72 339.68C1009.05 338.453 1008.14 337.52 1007 336.88C1005.88 336.213 1004.64 335.88 1003.28 335.88C1001.92 335.88 1000.68 336.2 999.558 336.84C998.438 337.48 997.544 338.413 996.878 339.64C996.211 340.867 995.878 342.307 995.878 343.96C995.878 345.64 996.211 347.107 996.878 348.36C997.544 349.587 998.438 350.533 999.558 351.2C1000.68 351.84 1001.92 352.16 1003.28 352.16C1004.64 352.16 1005.88 351.84 1007 351.2C1008.14 350.533 1009.05 349.587 1009.72 348.36C1010.38 347.107 1010.72 345.653 1010.72 344ZM1028.31 355.36C1026.63 355.36 1025.12 355.08 1023.79 354.52C1022.46 353.933 1021.4 353.133 1020.63 352.12C1019.86 351.08 1019.43 349.893 1019.35 348.56H1023.11C1023.22 349.653 1023.72 350.547 1024.63 351.24C1025.56 351.933 1026.78 352.28 1028.27 352.28C1029.66 352.28 1030.75 351.973 1031.55 351.36C1032.35 350.747 1032.75 349.973 1032.75 349.04C1032.75 348.08 1032.32 347.373 1031.47 346.92C1030.62 346.44 1029.3 345.973 1027.51 345.52C1025.88 345.093 1024.55 344.667 1023.51 344.24C1022.5 343.787 1021.62 343.133 1020.87 342.28C1020.15 341.4 1019.79 340.253 1019.79 338.84C1019.79 337.72 1020.12 336.693 1020.79 335.76C1021.46 334.827 1022.4 334.093 1023.63 333.56C1024.86 333 1026.26 332.72 1027.83 332.72C1030.26 332.72 1032.22 333.333 1033.71 334.56C1035.2 335.787 1036 337.467 1036.11 339.6H1032.47C1032.39 338.453 1031.92 337.533 1031.07 336.84C1030.24 336.147 1029.12 335.8 1027.71 335.8C1026.4 335.8 1025.36 336.08 1024.59 336.64C1023.82 337.2 1023.43 337.933 1023.43 338.84C1023.43 339.56 1023.66 340.16 1024.11 340.64C1024.59 341.093 1025.18 341.467 1025.87 341.76C1026.59 342.027 1027.58 342.333 1028.83 342.68C1030.4 343.107 1031.68 343.533 1032.67 343.96C1033.66 344.36 1034.5 344.973 1035.19 345.8C1035.91 346.627 1036.28 347.707 1036.31 349.04C1036.31 350.24 1035.98 351.32 1035.31 352.28C1034.64 353.24 1033.7 354 1032.47 354.56C1031.27 355.093 1029.88 355.36 1028.31 355.36ZM1070.99 333.08L1057.79 365.32H1054.03L1058.35 354.76L1049.51 333.08H1053.55L1060.43 350.84L1067.23 333.08H1070.99ZM1088.95 336.64C1089.59 335.387 1090.5 334.413 1091.67 333.72C1092.87 333.027 1094.33 332.68 1096.03 332.68V336.44H1095.07C1090.99 336.44 1088.95 338.653 1088.95 343.08V355H1085.31V333.08H1088.95V336.64ZM1120.24 343.2C1120.24 343.893 1120.2 344.627 1120.12 345.4H1102.6C1102.73 347.56 1103.46 349.253 1104.8 350.48C1106.16 351.68 1107.8 352.28 1109.72 352.28C1111.29 352.28 1112.6 351.92 1113.64 351.2C1114.7 350.453 1115.45 349.467 1115.88 348.24H1119.8C1119.21 350.347 1118.04 352.067 1116.28 353.4C1114.52 354.707 1112.33 355.36 1109.72 355.36C1107.64 355.36 1105.77 354.893 1104.12 353.96C1102.49 353.027 1101.21 351.707 1100.28 350C1099.34 348.267 1098.88 346.267 1098.88 344C1098.88 341.733 1099.33 339.747 1100.24 338.04C1101.14 336.333 1102.41 335.027 1104.04 334.12C1105.69 333.187 1107.58 332.72 1109.72 332.72C1111.8 332.72 1113.64 333.173 1115.24 334.08C1116.84 334.987 1118.06 336.24 1118.92 337.84C1119.8 339.413 1120.24 341.2 1120.24 343.2ZM1116.48 342.44C1116.48 341.053 1116.17 339.867 1115.56 338.88C1114.94 337.867 1114.1 337.107 1113.04 336.6C1112 336.067 1110.84 335.8 1109.56 335.8C1107.72 335.8 1106.14 336.387 1104.84 337.56C1103.56 338.733 1102.82 340.36 1102.64 342.44H1116.48ZM1123.68 344C1123.68 341.733 1124.13 339.76 1125.04 338.08C1125.95 336.373 1127.2 335.053 1128.8 334.12C1130.43 333.187 1132.28 332.72 1134.36 332.72C1137.05 332.72 1139.27 333.373 1141 334.68C1142.76 335.987 1143.92 337.8 1144.48 340.12H1140.56C1140.19 338.787 1139.45 337.733 1138.36 336.96C1137.29 336.187 1135.96 335.8 1134.36 335.8C1132.28 335.8 1130.6 336.52 1129.32 337.96C1128.04 339.373 1127.4 341.387 1127.4 344C1127.4 346.64 1128.04 348.68 1129.32 350.12C1130.6 351.56 1132.28 352.28 1134.36 352.28C1135.96 352.28 1137.29 351.907 1138.36 351.16C1139.43 350.413 1140.16 349.347 1140.56 347.96H1144.48C1143.89 350.2 1142.72 352 1140.96 353.36C1139.2 354.693 1137 355.36 1134.36 355.36C1132.28 355.36 1130.43 354.893 1128.8 353.96C1127.2 353.027 1125.95 351.707 1125.04 350C1124.13 348.293 1123.68 346.293 1123.68 344ZM1169.34 343.2C1169.34 343.893 1169.3 344.627 1169.22 345.4H1151.7C1151.83 347.56 1152.56 349.253 1153.9 350.48C1155.26 351.68 1156.9 352.28 1158.82 352.28C1160.39 352.28 1161.7 351.92 1162.74 351.2C1163.8 350.453 1164.55 349.467 1164.98 348.24H1168.9C1168.31 350.347 1167.14 352.067 1165.38 353.4C1163.62 354.707 1161.43 355.36 1158.82 355.36C1156.74 355.36 1154.87 354.893 1153.22 353.96C1151.59 353.027 1150.31 351.707 1149.38 350C1148.44 348.267 1147.98 346.267 1147.98 344C1147.98 341.733 1148.43 339.747 1149.34 338.04C1150.24 336.333 1151.51 335.027 1153.14 334.12C1154.79 333.187 1156.68 332.72 1158.82 332.72C1160.9 332.72 1162.74 333.173 1164.34 334.08C1165.94 334.987 1167.16 336.24 1168.02 337.84C1168.9 339.413 1169.34 341.2 1169.34 343.2ZM1165.58 342.44C1165.58 341.053 1165.27 339.867 1164.66 338.88C1164.04 337.867 1163.2 337.107 1162.14 336.6C1161.1 336.067 1159.94 335.8 1158.66 335.8C1156.82 335.8 1155.24 336.387 1153.94 337.56C1152.66 338.733 1151.92 340.36 1151.74 342.44H1165.58ZM1177.78 337.12C1178.5 335.867 1179.57 334.827 1180.98 334C1182.42 333.147 1184.09 332.72 1185.98 332.72C1187.93 332.72 1189.69 333.187 1191.26 334.12C1192.86 335.053 1194.12 336.373 1195.02 338.08C1195.93 339.76 1196.38 341.72 1196.38 343.96C1196.38 346.173 1195.93 348.147 1195.02 349.88C1194.12 351.613 1192.86 352.96 1191.26 353.92C1189.69 354.88 1187.93 355.36 1185.98 355.36C1184.12 355.36 1182.46 354.947 1181.02 354.12C1179.61 353.267 1178.53 352.213 1177.78 350.96V365.4H1174.14V333.08H1177.78V337.12ZM1192.66 343.96C1192.66 342.307 1192.33 340.867 1191.66 339.64C1191 338.413 1190.09 337.48 1188.94 336.84C1187.82 336.2 1186.58 335.88 1185.22 335.88C1183.89 335.88 1182.65 336.213 1181.5 336.88C1180.38 337.52 1179.48 338.467 1178.78 339.72C1178.12 340.947 1177.78 342.373 1177.78 344C1177.78 345.653 1178.12 347.107 1178.78 348.36C1179.48 349.587 1180.38 350.533 1181.5 351.2C1182.65 351.84 1183.89 352.16 1185.22 352.16C1186.58 352.16 1187.82 351.84 1188.94 351.2C1190.09 350.533 1191 349.587 1191.66 348.36C1192.33 347.107 1192.66 345.64 1192.66 343.96ZM1199.81 344C1199.81 341.733 1200.27 339.76 1201.17 338.08C1202.08 336.373 1203.33 335.053 1204.93 334.12C1206.56 333.187 1208.41 332.72 1210.49 332.72C1213.19 332.72 1215.4 333.373 1217.13 334.68C1218.89 335.987 1220.05 337.8 1220.61 340.12H1216.69C1216.32 338.787 1215.59 337.733 1214.49 336.96C1213.43 336.187 1212.09 335.8 1210.49 335.8C1208.41 335.8 1206.73 336.52 1205.45 337.96C1204.17 339.373 1203.53 341.387 1203.53 344C1203.53 346.64 1204.17 348.68 1205.45 350.12C1206.73 351.56 1208.41 352.28 1210.49 352.28C1212.09 352.28 1213.43 351.907 1214.49 351.16C1215.56 350.413 1216.29 349.347 1216.69 347.96H1220.61C1220.03 350.2 1218.85 352 1217.09 353.36C1215.33 354.693 1213.13 355.36 1210.49 355.36C1208.41 355.36 1206.56 354.893 1204.93 353.96C1203.33 353.027 1202.08 351.707 1201.17 350C1200.27 348.293 1199.81 346.293 1199.81 344ZM1227.35 329.52C1226.66 329.52 1226.07 329.28 1225.59 328.8C1225.11 328.32 1224.87 327.733 1224.87 327.04C1224.87 326.347 1225.11 325.76 1225.59 325.28C1226.07 324.8 1226.66 324.56 1227.35 324.56C1228.02 324.56 1228.58 324.8 1229.03 325.28C1229.51 325.76 1229.75 326.347 1229.75 327.04C1229.75 327.733 1229.51 328.32 1229.03 328.8C1228.58 329.28 1228.02 329.52 1227.35 329.52ZM1229.11 333.08V355H1225.47V333.08H1229.11ZM1244.87 355.36C1242.82 355.36 1240.95 354.893 1239.27 353.96C1237.62 353.027 1236.31 351.707 1235.35 350C1234.42 348.267 1233.95 346.267 1233.95 344C1233.95 341.76 1234.43 339.787 1235.39 338.08C1236.38 336.347 1237.71 335.027 1239.39 334.12C1241.07 333.187 1242.95 332.72 1245.03 332.72C1247.11 332.72 1248.99 333.187 1250.67 334.12C1252.35 335.027 1253.67 336.333 1254.63 338.04C1255.62 339.747 1256.11 341.733 1256.11 344C1256.11 346.267 1255.61 348.267 1254.59 350C1253.61 351.707 1252.26 353.027 1250.55 353.96C1248.85 354.893 1246.95 355.36 1244.87 355.36ZM1244.87 352.16C1246.18 352.16 1247.41 351.853 1248.55 351.24C1249.7 350.627 1250.62 349.707 1251.31 348.48C1252.03 347.253 1252.39 345.76 1252.39 344C1252.39 342.24 1252.05 340.747 1251.35 339.52C1250.66 338.293 1249.75 337.387 1248.63 336.8C1247.51 336.187 1246.3 335.88 1244.99 335.88C1243.66 335.88 1242.43 336.187 1241.31 336.8C1240.22 337.387 1239.34 338.293 1238.67 339.52C1238.01 340.747 1237.67 342.24 1237.67 344C1237.67 345.787 1237.99 347.293 1238.63 348.52C1239.3 349.747 1240.18 350.667 1241.27 351.28C1242.37 351.867 1243.57 352.16 1244.87 352.16ZM1271.58 332.68C1274.25 332.68 1276.41 333.493 1278.06 335.12C1279.71 336.72 1280.54 339.04 1280.54 342.08V355H1276.94V342.6C1276.94 340.413 1276.39 338.747 1275.3 337.6C1274.21 336.427 1272.71 335.84 1270.82 335.84C1268.9 335.84 1267.37 336.44 1266.22 337.64C1265.1 338.84 1264.54 340.587 1264.54 342.88V355H1260.9V333.08H1264.54V336.2C1265.26 335.08 1266.23 334.213 1267.46 333.6C1268.71 332.987 1270.09 332.68 1271.58 332.68ZM1306.49 343.2C1306.49 343.893 1306.45 344.627 1306.37 345.4H1288.85C1288.98 347.56 1289.71 349.253 1291.05 350.48C1292.41 351.68 1294.05 352.28 1295.97 352.28C1297.54 352.28 1298.85 351.92 1299.89 351.2C1300.95 350.453 1301.7 349.467 1302.13 348.24H1306.05C1305.46 350.347 1304.29 352.067 1302.53 353.4C1300.77 354.707 1298.58 355.36 1295.97 355.36C1293.89 355.36 1292.02 354.893 1290.37 353.96C1288.74 353.027 1287.46 351.707 1286.53 350C1285.59 348.267 1285.13 346.267 1285.13 344C1285.13 341.733 1285.58 339.747 1286.49 338.04C1287.39 336.333 1288.66 335.027 1290.29 334.12C1291.94 333.187 1293.83 332.72 1295.97 332.72C1298.05 332.72 1299.89 333.173 1301.49 334.08C1303.09 334.987 1304.31 336.24 1305.17 337.84C1306.05 339.413 1306.49 341.2 1306.49 343.2ZM1302.73 342.44C1302.73 341.053 1302.42 339.867 1301.81 338.88C1301.19 337.867 1300.35 337.107 1299.29 336.6C1298.25 336.067 1297.09 335.8 1295.81 335.8C1293.97 335.8 1292.39 336.387 1291.09 337.56C1289.81 338.733 1289.07 340.36 1288.89 342.44H1302.73ZM1319.05 355.36C1317.37 355.36 1315.86 355.08 1314.53 354.52C1313.2 353.933 1312.14 353.133 1311.37 352.12C1310.6 351.08 1310.17 349.893 1310.09 348.56H1313.85C1313.96 349.653 1314.46 350.547 1315.37 351.24C1316.3 351.933 1317.52 352.28 1319.01 352.28C1320.4 352.28 1321.49 351.973 1322.29 351.36C1323.09 350.747 1323.49 349.973 1323.49 349.04C1323.49 348.08 1323.06 347.373 1322.21 346.92C1321.36 346.44 1320.04 345.973 1318.25 345.52C1316.62 345.093 1315.29 344.667 1314.25 344.24C1313.24 343.787 1312.36 343.133 1311.61 342.28C1310.89 341.4 1310.53 340.253 1310.53 338.84C1310.53 337.72 1310.86 336.693 1311.53 335.76C1312.2 334.827 1313.14 334.093 1314.37 333.56C1315.6 333 1317 332.72 1318.57 332.72C1321 332.72 1322.96 333.333 1324.45 334.56C1325.94 335.787 1326.74 337.467 1326.85 339.6H1323.21C1323.13 338.453 1322.66 337.533 1321.81 336.84C1320.98 336.147 1319.86 335.8 1318.45 335.8C1317.14 335.8 1316.1 336.08 1315.33 336.64C1314.56 337.2 1314.17 337.933 1314.17 338.84C1314.17 339.56 1314.4 340.16 1314.85 340.64C1315.33 341.093 1315.92 341.467 1316.61 341.76C1317.33 342.027 1318.32 342.333 1319.57 342.68C1321.14 343.107 1322.42 343.533 1323.41 343.96C1324.4 344.36 1325.24 344.973 1325.93 345.8C1326.65 346.627 1327.02 347.707 1327.05 349.04C1327.05 350.24 1326.72 351.32 1326.05 352.28C1325.38 353.24 1324.44 354 1323.21 354.56C1322.01 355.093 1320.62 355.36 1319.05 355.36Z" fill="white"/>
<rect x="549" y="376" width="806" height="18" rx="9" fill="#D9D9D9" fill-opacity="0.24"/>
<rect x="31" y="426" width="3" height="15" rx="1.5" fill="#FDD69F"/>
<rect x="31" y="444" width="3" height="15" rx="1.5" fill="#FDD69F"/>
<rect x="31" y="441" width="3" height="15" rx="1.5" transform="rotate(90 31 441)" fill="#FDD69F"/>
<rect x="49" y="441" width="3" height="15" rx="1.5" transform="rotate(90 49 441)" fill="#FDD69F"/>
<rect x="301" y="41" width="3" height="15" rx="1.5" fill="#FDD69F"/>
<rect x="301" y="59" width="3" height="15" rx="1.5" fill="#FDD69F"/>
<rect x="301" y="56" width="3" height="15" rx="1.5" transform="rotate(90 301 56)" fill="#FDD69F"/>
<rect x="319" y="56" width="3" height="15" rx="1.5" transform="rotate(90 319 56)" fill="#FDD69F"/>
<rect x="445" y="254" width="3" height="15" rx="1.5" fill="#FDD69F"/>
<rect x="445" y="272" width="3" height="15" rx="1.5" fill="#FDD69F"/>
<rect x="445" y="269" width="3" height="15" rx="1.5" transform="rotate(90 445 269)" fill="#FDD69F"/>
<rect x="463" y="269" width="3" height="15" rx="1.5" transform="rotate(90 463 269)" fill="#FDD69F"/>
<rect x="580" y="72" width="3" height="15" rx="1.5" fill="#FDD69F"/>
<rect x="580" y="90" width="3" height="15" rx="1.5" fill="#FDD69F"/>
<rect x="580" y="87" width="3" height="15" rx="1.5" transform="rotate(90 580 87)" fill="#FDD69F"/>
<rect x="598" y="87" width="3" height="15" rx="1.5" transform="rotate(90 598 87)" fill="#FDD69F"/>
<rect x="554" y="527" width="3" height="15" rx="1.5" fill="#FDD69F"/>
<rect x="554" y="545" width="3" height="15" rx="1.5" fill="#FDD69F"/>
<rect x="554" y="542" width="3" height="15" rx="1.5" transform="rotate(90 554 542)" fill="#FDD69F"/>
<rect x="572" y="542" width="3" height="15" rx="1.5" transform="rotate(90 572 542)" fill="#FDD69F"/>
<rect x="1325" y="462" width="3" height="15" rx="1.5" fill="#FDD69F"/>
<rect x="1325" y="480" width="3" height="15" rx="1.5" fill="#FDD69F"/>
<rect x="1325" y="477" width="3" height="15" rx="1.5" transform="rotate(90 1325 477)" fill="#FDD69F"/>
<rect x="1343" y="477" width="3" height="15" rx="1.5" transform="rotate(90 1343 477)" fill="#FDD69F"/>
<ellipse cx="36.5" cy="286.5" rx="17.5" ry="16.5" fill="#FFBE61"/>
<ellipse cx="655" cy="544.5" rx="30" ry="28.5" fill="#FFBE61"/>
<ellipse cx="427.5" cy="543.5" rx="17.5" ry="16.5" fill="#FFBE61"/>
<path d="M408 108C408 118.369 399.173 127 388 127C376.827 127 368 118.369 368 108C368 97.6309 376.827 89 388 89C399.173 89 408 97.6309 408 108Z" stroke="#FFBE61" stroke-width="6"/>
<path d="M134 522C134 532.369 125.173 541 114 541C102.827 541 94 532.369 94 522C94 511.631 102.827 503 114 503C125.173 503 134 511.631 134 522Z" stroke="#FFBE61" stroke-width="6"/>
<path d="M115 71.5C115 86.5537 102.154 99 86 99C69.8464 99 57 86.5537 57 71.5C57 56.4463 69.8464 44 86 44C102.154 44 115 56.4463 115 71.5Z" stroke="#FFBE61" stroke-width="6"/>
<rect x="1228" y="35" width="3" height="15" rx="1.5" fill="#FDD69F"/>
<rect x="1228" y="53" width="3" height="15" rx="1.5" fill="#FDD69F"/>
<rect x="1228" y="50" width="3" height="15" rx="1.5" transform="rotate(90 1228 50)" fill="#FDD69F"/>
<rect x="1246" y="50" width="3" height="15" rx="1.5" transform="rotate(90 1246 50)" fill="#FDD69F"/>
<ellipse cx="642.5" cy="34.5" rx="17.5" ry="16.5" fill="#FFBE61"/>
<ellipse cx="1184.5" cy="499.5" rx="17.5" ry="16.5" fill="#FFBE61"/>
<path d="M1352 81.5C1352 96.5537 1339.15 109 1323 109C1306.85 109 1294 96.5537 1294 81.5C1294 66.4463 1306.85 54 1323 54C1339.15 54 1352 66.4463 1352 81.5Z" stroke="#FFBE61" stroke-width="6"/>
<path d="M1307 541.5C1307 556.554 1294.15 569 1278 569C1261.85 569 1249 556.554 1249 541.5C1249 526.446 1261.85 514 1278 514C1294.15 514 1307 526.446 1307 541.5Z" stroke="#FFBE61" stroke-width="6"/>
</svg>
