<svg viewBox="0 0 1402 602" fill="none" xmlns="http://www.w3.org/2000/svg">
<rect width="1402" height="602" rx="70" fill="#EB7063"/>
<path d="M599 51C599 66.8475 585.295 80 568 80C550.705 80 537 66.8475 537 51C537 35.1525 550.705 22 568 22C585.295 22 599 35.1525 599 51Z" stroke="#FF948A" stroke-width="6"/>
<rect x="201" y="58" width="3" height="15" rx="1.5" fill="#FF948A"/>
<rect x="201" y="76" width="3" height="15" rx="1.5" fill="#FF948A"/>
<rect x="201" y="73" width="3" height="15" rx="1.5" transform="rotate(90 201 73)" fill="#FF948A"/>
<rect x="219" y="73" width="3" height="15" rx="1.5" transform="rotate(90 219 73)" fill="#FF948A"/>
<rect x="1317" y="527" width="3" height="15" rx="1.5" fill="#FF948A"/>
<rect x="1317" y="545" width="3" height="15" rx="1.5" fill="#FF948A"/>
<rect x="1317" y="542" width="3" height="15" rx="1.5" transform="rotate(90 1317 542)" fill="#FF948A"/>
<rect x="1335" y="542" width="3" height="15" rx="1.5" transform="rotate(90 1335 542)" fill="#FF948A"/>
<rect x="350" y="141" width="3" height="15" rx="1.5" fill="#FF948A"/>
<rect x="350" y="159" width="3" height="15" rx="1.5" fill="#FF948A"/>
<rect x="350" y="156" width="3" height="15" rx="1.5" transform="rotate(90 350 156)" fill="#FF948A"/>
<rect x="368" y="156" width="3" height="15" rx="1.5" transform="rotate(90 368 156)" fill="#FF948A"/>
<rect width="486" height="602" rx="70" fill="white"/>
<path d="M350.41 308.266L360.466 220.667H333.99L297.471 373.694L427.352 366.286L437.994 326.572L350.41 308.266Z" fill="#FFA95F"/>
<path d="M332.089 326.572H305.612L291.424 379.524H410.567C417.878 379.524 425.393 373.597 427.352 366.286H334.685C327.374 366.286 323.035 360.359 324.994 353.048L332.089 326.572Z" fill="#FF8B5A"/>
<path d="M436.148 309.477L413.767 293.477L388.283 276.876L413.546 247.143L413.466 230.422C413.438 224.663 409.278 220.667 403.308 220.667H360.467L332.09 326.572H437.995L439.533 320.829C440.779 316.179 439.493 311.869 436.148 309.477Z" fill="#FFC269"/>
<rect x="448" y="240" width="3" height="15" rx="1.5" fill="#FF8A7E"/>
<rect x="448" y="258" width="3" height="15" rx="1.5" fill="#FF8A7E"/>
<rect x="448" y="255" width="3" height="15" rx="1.5" transform="rotate(90 448 255)" fill="#FF8A7E"/>
<rect x="466" y="255" width="3" height="15" rx="1.5" transform="rotate(90 466 255)" fill="#FF8A7E"/>
<path d="M286.847 207.429H344.156C347.811 207.429 349.981 210.393 349.001 214.048L308.209 366.286L117.204 377.495C113.549 377.495 112.152 375.721 113.132 372.065L149.647 234.829L286.847 207.429Z" fill="#E5646E"/>
<path d="M129.495 366.286C125.839 366.286 123.67 363.323 124.65 359.667L134.319 323.582C135.329 319.816 139.383 317.664 143.005 319.107C155.03 323.899 168.119 326.573 181.857 326.573C240.347 326.573 287.762 279.158 287.762 220.668C287.762 216.174 287.391 211.776 286.848 207.43H158.824C155.168 207.43 151.411 210.393 150.431 214.049L107.865 372.906C106.885 376.561 109.055 379.525 112.71 379.525H304.662L308.209 366.287H129.495V366.286Z" fill="#DB4655"/>
<path d="M392.734 396.957C405.312 385.952 408.678 369.225 400.253 359.596C391.828 349.968 374.803 351.083 362.225 362.088C349.647 373.093 346.281 389.82 354.706 399.449C363.13 409.078 380.156 407.962 392.734 396.957Z" fill="#5D5360"/>
<path d="M385.107 388.24C391.396 382.737 393.079 374.374 388.866 369.559C384.654 364.745 376.141 365.302 369.852 370.805C363.563 376.307 361.88 384.671 366.092 389.486C370.305 394.3 378.818 393.742 385.107 388.24Z" fill="#DAD8DB"/>
<path d="M187.542 396.959C200.119 385.954 203.486 369.227 195.061 359.598C186.636 349.97 169.61 351.085 157.033 362.09C144.455 373.095 141.088 389.822 149.513 399.451C157.938 409.08 174.964 407.964 187.542 396.959Z" fill="#5D5360"/>
<path d="M179.914 388.242C186.203 382.74 187.886 374.376 183.674 369.562C179.461 364.747 170.948 365.305 164.659 370.807C158.371 376.31 156.687 384.673 160.9 389.488C165.113 394.303 173.626 393.745 179.914 388.242Z" fill="#DAD8DB"/>
<path d="M413.545 247.143H379.849L368.125 260.381L372.706 289.194L413.767 280.238L413.545 247.143Z" fill="#DBEAFF"/>
<path d="M384.218 280.238C376.907 280.238 372.568 274.312 374.527 267L379.848 247.143C372.536 247.143 365.021 253.07 363.063 260.381L357.742 280.238C355.783 287.55 360.122 293.476 367.433 293.476H413.766L413.703 280.238H384.218Z" fill="#C3DDFF"/>
<path d="M181.857 313.334C233.036 313.334 274.524 271.845 274.524 220.667C274.524 169.488 233.036 128 181.857 128C130.679 128 89.1904 169.488 89.1904 220.667C89.1904 271.845 130.679 313.334 181.857 313.334Z" fill="#ECEAEC"/>
<path d="M181.857 300.096C225.725 300.096 261.286 264.534 261.286 220.667C261.286 176.8 225.725 141.238 181.857 141.238C137.99 141.238 102.429 176.8 102.429 220.667C102.429 264.534 137.99 300.096 181.857 300.096Z" fill="white"/>
<path d="M181.857 167.715C178.199 167.715 175.238 164.751 175.238 161.096V154.476C175.238 150.821 178.199 147.857 181.857 147.857C185.516 147.857 188.476 150.821 188.476 154.476V161.096C188.476 164.751 185.516 167.715 181.857 167.715Z" fill="#C8C5C9"/>
<path d="M181.857 293.476C178.199 293.476 175.238 290.513 175.238 286.857V280.238C175.238 276.583 178.199 273.619 181.857 273.619C185.516 273.619 188.476 276.583 188.476 280.238V286.857C188.476 290.513 185.516 293.476 181.857 293.476Z" fill="#C8C5C9"/>
<path d="M248.048 227.286H241.429C237.77 227.286 234.81 224.322 234.81 220.667C234.81 217.012 237.77 214.048 241.429 214.048H248.048C251.706 214.048 254.667 217.012 254.667 220.667C254.667 224.322 251.707 227.286 248.048 227.286Z" fill="#C8C5C9"/>
<path d="M122.286 227.286H115.667C112.008 227.286 109.048 224.322 109.048 220.667C109.048 217.012 112.008 214.048 115.667 214.048H122.286C125.944 214.048 128.905 217.012 128.905 220.667C128.905 224.322 125.944 227.286 122.286 227.286Z" fill="#C8C5C9"/>
<path d="M95.8097 313.334H29.6191C25.9605 313.334 23 310.37 23 306.715C23 303.059 25.9605 300.096 29.6191 300.096H95.8097C99.4682 300.096 102.429 303.059 102.429 306.715C102.429 310.37 99.4682 313.334 95.8097 313.334Z" fill="#F9EAC7"/>
<path d="M89.1908 339.81H49.4765C45.818 339.81 42.8574 336.846 42.8574 333.191C42.8574 329.536 45.818 326.572 49.4765 326.572H89.1908C92.8494 326.572 95.8099 329.536 95.8099 333.191C95.8099 336.846 92.8494 339.81 89.1908 339.81Z" fill="#F9EAC7"/>
<path d="M82.5715 366.286H69.3334C65.6749 366.286 62.7144 363.322 62.7144 359.667C62.7144 356.012 65.6749 353.048 69.3334 353.048H82.5715C86.2301 353.048 89.1906 356.012 89.1906 359.667C89.1906 363.322 86.2301 366.286 82.5715 366.286Z" fill="#F9EAC7"/>
<path d="M162 247.143C160.307 247.143 158.613 246.496 157.32 245.204C154.734 242.618 154.734 238.43 157.32 235.844L220.201 172.963C222.787 170.377 226.975 170.377 229.561 172.963C232.147 175.549 232.147 179.737 229.561 182.323L166.68 245.204C165.387 246.496 163.693 247.143 162 247.143Z" fill="#E5646E"/>
<path d="M181.857 233.905C189.168 233.905 195.095 227.978 195.095 220.667C195.095 213.356 189.168 207.429 181.857 207.429C174.546 207.429 168.619 213.356 168.619 220.667C168.619 227.978 174.546 233.905 181.857 233.905Z" fill="#5D5360"/>
<path d="M641.48 215.24V221.16H626.28V271H619V221.16H603.72V215.24H641.48ZM654.201 220.04C652.815 220.04 651.641 219.56 650.681 218.6C649.721 217.64 649.241 216.467 649.241 215.08C649.241 213.693 649.721 212.52 650.681 211.56C651.641 210.6 652.815 210.12 654.201 210.12C655.535 210.12 656.655 210.6 657.561 211.56C658.521 212.52 659.001 213.693 659.001 215.08C659.001 216.467 658.521 217.64 657.561 218.6C656.655 219.56 655.535 220.04 654.201 220.04ZM657.721 227.16V271H650.441V227.16H657.721ZM710.129 247.4C710.129 248.787 710.049 250.253 709.889 251.8H674.849C675.115 256.12 676.582 259.507 679.249 261.96C681.969 264.36 685.249 265.56 689.089 265.56C692.235 265.56 694.849 264.84 696.929 263.4C699.062 261.907 700.555 259.933 701.409 257.48H709.249C708.075 261.693 705.729 265.133 702.209 267.8C698.689 270.413 694.315 271.72 689.089 271.72C684.929 271.72 681.195 270.787 677.889 268.92C674.635 267.053 672.075 264.413 670.209 261C668.342 257.533 667.409 253.533 667.409 249C667.409 244.467 668.315 240.493 670.129 237.08C671.942 233.667 674.475 231.053 677.729 229.24C681.035 227.373 684.822 226.44 689.089 226.44C693.249 226.44 696.929 227.347 700.129 229.16C703.329 230.973 705.782 233.48 707.489 236.68C709.249 239.827 710.129 243.4 710.129 247.4ZM702.609 245.88C702.609 243.107 701.995 240.733 700.769 238.76C699.542 236.733 697.862 235.213 695.729 234.2C693.649 233.133 691.329 232.6 688.769 232.6C685.089 232.6 681.942 233.773 679.329 236.12C676.769 238.467 675.302 241.72 674.929 245.88H702.609ZM772.458 226.36C775.871 226.36 778.911 227.08 781.578 228.52C784.245 229.907 786.351 232.013 787.898 234.84C789.445 237.667 790.218 241.107 790.218 245.16V271H783.018V246.2C783.018 241.827 781.925 238.493 779.738 236.2C777.605 233.853 774.698 232.68 771.018 232.68C767.231 232.68 764.218 233.907 761.978 236.36C759.738 238.76 758.618 242.253 758.618 246.84V271H751.418V246.2C751.418 241.827 750.325 238.493 748.138 236.2C746.005 233.853 743.098 232.68 739.418 232.68C735.631 232.68 732.618 233.907 730.378 236.36C728.138 238.76 727.018 242.253 727.018 246.84V271H719.738V227.16H727.018V233.48C728.458 231.187 730.378 229.427 732.778 228.2C735.231 226.973 737.925 226.36 740.858 226.36C744.538 226.36 747.791 227.187 750.618 228.84C753.445 230.493 755.551 232.92 756.938 236.12C758.165 233.027 760.191 230.627 763.018 228.92C765.845 227.213 768.991 226.36 772.458 226.36ZM809.44 235.24C810.88 232.733 813.013 230.653 815.84 229C818.72 227.293 822.053 226.44 825.84 226.44C829.733 226.44 833.253 227.373 836.4 229.24C839.6 231.107 842.107 233.747 843.92 237.16C845.733 240.52 846.64 244.44 846.64 248.92C846.64 253.347 845.733 257.293 843.92 260.76C842.107 264.227 839.6 266.92 836.4 268.84C833.253 270.76 829.733 271.72 825.84 271.72C822.107 271.72 818.8 270.893 815.92 269.24C813.093 267.533 810.933 265.427 809.44 262.92V291.8H802.16V227.16H809.44V235.24ZM839.2 248.92C839.2 245.613 838.533 242.733 837.2 240.28C835.867 237.827 834.053 235.96 831.76 234.68C829.52 233.4 827.04 232.76 824.32 232.76C821.653 232.76 819.173 233.427 816.88 234.76C814.64 236.04 812.827 237.933 811.44 240.44C810.107 242.893 809.44 245.747 809.44 249C809.44 252.307 810.107 255.213 811.44 257.72C812.827 260.173 814.64 262.067 816.88 263.4C819.173 264.68 821.653 265.32 824.32 265.32C827.04 265.32 829.52 264.68 831.76 263.4C834.053 262.067 835.867 260.173 837.2 257.72C838.533 255.213 839.2 252.28 839.2 248.92ZM875.343 271.72C871.236 271.72 867.503 270.787 864.143 268.92C860.836 267.053 858.223 264.413 856.303 261C854.436 257.533 853.503 253.533 853.503 249C853.503 244.52 854.463 240.573 856.383 237.16C858.356 233.693 861.023 231.053 864.383 229.24C867.743 227.373 871.503 226.44 875.663 226.44C879.823 226.44 883.583 227.373 886.943 229.24C890.303 231.053 892.943 233.667 894.863 237.08C896.836 240.493 897.823 244.467 897.823 249C897.823 253.533 896.809 257.533 894.783 261C892.809 264.413 890.116 267.053 886.703 268.92C883.289 270.787 879.503 271.72 875.343 271.72ZM875.343 265.32C877.956 265.32 880.409 264.707 882.703 263.48C884.996 262.253 886.836 260.413 888.223 257.96C889.663 255.507 890.383 252.52 890.383 249C890.383 245.48 889.689 242.493 888.303 240.04C886.916 237.587 885.103 235.773 882.863 234.6C880.623 233.373 878.196 232.76 875.583 232.76C872.916 232.76 870.463 233.373 868.223 234.6C866.036 235.773 864.276 237.587 862.943 240.04C861.609 242.493 860.943 245.48 860.943 249C860.943 252.573 861.583 255.587 862.863 258.04C864.196 260.493 865.956 262.333 868.143 263.56C870.329 264.733 872.729 265.32 875.343 265.32ZM971.523 271L964.243 263.64C961.523 266.467 958.616 268.573 955.523 269.96C952.429 271.293 948.936 271.96 945.043 271.96C941.203 271.96 937.789 271.267 934.803 269.88C931.869 268.493 929.576 266.52 927.923 263.96C926.323 261.4 925.523 258.413 925.523 255C925.523 251.107 926.616 247.693 928.803 244.76C931.043 241.773 934.323 239.427 938.643 237.72C936.936 235.693 935.709 233.827 934.963 232.12C934.216 230.413 933.843 228.547 933.843 226.52C933.843 224.173 934.429 222.067 935.603 220.2C936.829 218.28 938.563 216.787 940.803 215.72C943.043 214.653 945.629 214.12 948.563 214.12C951.443 214.12 953.949 214.68 956.083 215.8C958.216 216.92 959.816 218.493 960.883 220.52C961.949 222.493 962.429 224.707 962.323 227.16H955.043C955.096 224.973 954.483 223.267 953.203 222.04C951.923 220.76 950.269 220.12 948.243 220.12C946.109 220.12 944.376 220.733 943.043 221.96C941.763 223.133 941.123 224.653 941.123 226.52C941.123 228.12 941.549 229.667 942.403 231.16C943.309 232.653 944.803 234.493 946.883 236.68L963.523 253.4L964.963 251.16L970.403 242.04H978.243L971.683 253.4C970.776 255 969.709 256.68 968.483 258.44L981.043 271H971.523ZM945.043 265.72C947.923 265.72 950.509 265.16 952.803 264.04C955.149 262.92 957.363 261.187 959.443 258.84L943.043 242.36C936.216 244.973 932.803 249.107 932.803 254.76C932.803 257.907 933.923 260.52 936.163 262.6C938.456 264.68 941.416 265.72 945.043 265.72ZM1049.19 247.4C1049.19 248.787 1049.11 250.253 1048.95 251.8H1013.91C1014.18 256.12 1015.64 259.507 1018.31 261.96C1021.03 264.36 1024.31 265.56 1028.15 265.56C1031.3 265.56 1033.91 264.84 1035.99 263.4C1038.12 261.907 1039.62 259.933 1040.47 257.48H1048.31C1047.14 261.693 1044.79 265.133 1041.27 267.8C1037.75 270.413 1033.38 271.72 1028.15 271.72C1023.99 271.72 1020.26 270.787 1016.95 268.92C1013.7 267.053 1011.14 264.413 1009.27 261C1007.4 257.533 1006.47 253.533 1006.47 249C1006.47 244.467 1007.38 240.493 1009.19 237.08C1011 233.667 1013.54 231.053 1016.79 229.24C1020.1 227.373 1023.88 226.44 1028.15 226.44C1032.31 226.44 1035.99 227.347 1039.19 229.16C1042.39 230.973 1044.84 233.48 1046.55 236.68C1048.31 239.827 1049.19 243.4 1049.19 247.4ZM1041.67 245.88C1041.67 243.107 1041.06 240.733 1039.83 238.76C1038.6 236.733 1036.92 235.213 1034.79 234.2C1032.71 233.133 1030.39 232.6 1027.83 232.6C1024.15 232.6 1021 233.773 1018.39 236.12C1015.83 238.467 1014.36 241.72 1013.99 245.88H1041.67ZM1074.32 271.72C1070.96 271.72 1067.95 271.16 1065.28 270.04C1062.61 268.867 1060.51 267.267 1058.96 265.24C1057.41 263.16 1056.56 260.787 1056.4 258.12H1063.92C1064.13 260.307 1065.15 262.093 1066.96 263.48C1068.83 264.867 1071.25 265.56 1074.24 265.56C1077.01 265.56 1079.2 264.947 1080.8 263.72C1082.4 262.493 1083.2 260.947 1083.2 259.08C1083.2 257.16 1082.35 255.747 1080.64 254.84C1078.93 253.88 1076.29 252.947 1072.72 252.04C1069.47 251.187 1066.8 250.333 1064.72 249.48C1062.69 248.573 1060.93 247.267 1059.44 245.56C1058 243.8 1057.28 241.507 1057.28 238.68C1057.28 236.44 1057.95 234.387 1059.28 232.52C1060.61 230.653 1062.51 229.187 1064.96 228.12C1067.41 227 1070.21 226.44 1073.36 226.44C1078.21 226.44 1082.13 227.667 1085.12 230.12C1088.11 232.573 1089.71 235.933 1089.92 240.2H1082.64C1082.48 237.907 1081.55 236.067 1079.84 234.68C1078.19 233.293 1075.95 232.6 1073.12 232.6C1070.51 232.6 1068.43 233.16 1066.88 234.28C1065.33 235.4 1064.56 236.867 1064.56 238.68C1064.56 240.12 1065.01 241.32 1065.92 242.28C1066.88 243.187 1068.05 243.933 1069.44 244.52C1070.88 245.053 1072.85 245.667 1075.36 246.36C1078.51 247.213 1081.07 248.067 1083.04 248.92C1085.01 249.72 1086.69 250.947 1088.08 252.6C1089.52 254.253 1090.27 256.413 1090.32 259.08C1090.32 261.48 1089.65 263.64 1088.32 265.56C1086.99 267.48 1085.09 269 1082.64 270.12C1080.24 271.187 1077.47 271.72 1074.32 271.72ZM1107.88 235.24C1109.32 232.733 1111.45 230.653 1114.28 229C1117.16 227.293 1120.49 226.44 1124.28 226.44C1128.17 226.44 1131.69 227.373 1134.84 229.24C1138.04 231.107 1140.54 233.747 1142.36 237.16C1144.17 240.52 1145.08 244.44 1145.08 248.92C1145.08 253.347 1144.17 257.293 1142.36 260.76C1140.54 264.227 1138.04 266.92 1134.84 268.84C1131.69 270.76 1128.17 271.72 1124.28 271.72C1120.54 271.72 1117.24 270.893 1114.36 269.24C1111.53 267.533 1109.37 265.427 1107.88 262.92V291.8H1100.6V227.16H1107.88V235.24ZM1137.64 248.92C1137.64 245.613 1136.97 242.733 1135.64 240.28C1134.3 237.827 1132.49 235.96 1130.2 234.68C1127.96 233.4 1125.48 232.76 1122.76 232.76C1120.09 232.76 1117.61 233.427 1115.32 234.76C1113.08 236.04 1111.26 237.933 1109.88 240.44C1108.54 242.893 1107.88 245.747 1107.88 249C1107.88 252.307 1108.54 255.213 1109.88 257.72C1111.26 260.173 1113.08 262.067 1115.32 263.4C1117.61 264.68 1120.09 265.32 1122.76 265.32C1125.48 265.32 1127.96 264.68 1130.2 263.4C1132.49 262.067 1134.3 260.173 1135.64 257.72C1136.97 255.213 1137.64 252.28 1137.64 248.92ZM1194.66 247.4C1194.66 248.787 1194.58 250.253 1194.42 251.8H1159.38C1159.65 256.12 1161.11 259.507 1163.78 261.96C1166.5 264.36 1169.78 265.56 1173.62 265.56C1176.77 265.56 1179.38 264.84 1181.46 263.4C1183.59 261.907 1185.09 259.933 1185.94 257.48H1193.78C1192.61 261.693 1190.26 265.133 1186.74 267.8C1183.22 270.413 1178.85 271.72 1173.62 271.72C1169.46 271.72 1165.73 270.787 1162.42 268.92C1159.17 267.053 1156.61 264.413 1154.74 261C1152.87 257.533 1151.94 253.533 1151.94 249C1151.94 244.467 1152.85 240.493 1154.66 237.08C1156.47 233.667 1159.01 231.053 1162.26 229.24C1165.57 227.373 1169.35 226.44 1173.62 226.44C1177.78 226.44 1181.46 227.347 1184.66 229.16C1187.86 230.973 1190.31 233.48 1192.02 236.68C1193.78 239.827 1194.66 243.4 1194.66 247.4ZM1187.14 245.88C1187.14 243.107 1186.53 240.733 1185.3 238.76C1184.07 236.733 1182.39 235.213 1180.26 234.2C1178.18 233.133 1175.86 232.6 1173.3 232.6C1169.62 232.6 1166.47 233.773 1163.86 236.12C1161.3 238.467 1159.83 241.72 1159.46 245.88H1187.14ZM1211.55 234.28C1212.83 231.773 1214.64 229.827 1216.99 228.44C1219.39 227.053 1222.3 226.36 1225.71 226.36V233.88H1223.79C1215.63 233.88 1211.55 238.307 1211.55 247.16V271H1204.27V227.16H1211.55V234.28ZM1231.39 248.92C1231.39 244.44 1232.3 240.52 1234.11 237.16C1235.93 233.747 1238.41 231.107 1241.55 229.24C1244.75 227.373 1248.3 226.44 1252.19 226.44C1256.03 226.44 1259.37 227.267 1262.19 228.92C1265.02 230.573 1267.13 232.653 1268.51 235.16V227.16H1275.87V271H1268.51V262.84C1267.07 265.4 1264.91 267.533 1262.03 269.24C1259.21 270.893 1255.9 271.72 1252.11 271.72C1248.22 271.72 1244.7 270.76 1241.55 268.84C1238.41 266.92 1235.93 264.227 1234.11 260.76C1232.3 257.293 1231.39 253.347 1231.39 248.92ZM1268.51 249C1268.51 245.693 1267.85 242.813 1266.51 240.36C1265.18 237.907 1263.37 236.04 1261.07 234.76C1258.83 233.427 1256.35 232.76 1253.63 232.76C1250.91 232.76 1248.43 233.4 1246.19 234.68C1243.95 235.96 1242.17 237.827 1240.83 240.28C1239.5 242.733 1238.83 245.613 1238.83 248.92C1238.83 252.28 1239.5 255.213 1240.83 257.72C1242.17 260.173 1243.95 262.067 1246.19 263.4C1248.43 264.68 1250.91 265.32 1253.63 265.32C1256.35 265.32 1258.83 264.68 1261.07 263.4C1263.37 262.067 1265.18 260.173 1266.51 257.72C1267.85 255.213 1268.51 252.307 1268.51 249Z" fill="white"/>
<path d="M553.76 356L547.12 344.6H542.72V356H539.08V328.12H548.08C550.187 328.12 551.96 328.48 553.4 329.2C554.867 329.92 555.96 330.893 556.68 332.12C557.4 333.347 557.76 334.747 557.76 336.32C557.76 338.24 557.2 339.933 556.08 341.4C554.987 342.867 553.333 343.84 551.12 344.32L558.12 356H553.76ZM542.72 341.68H548.08C550.053 341.68 551.533 341.2 552.52 340.24C553.507 339.253 554 337.947 554 336.32C554 334.667 553.507 333.387 552.52 332.48C551.56 331.573 550.08 331.12 548.08 331.12H542.72V341.68ZM583.416 344.2C583.416 344.893 583.376 345.627 583.296 346.4H565.776C565.909 348.56 566.643 350.253 567.976 351.48C569.336 352.68 570.976 353.28 572.896 353.28C574.469 353.28 575.776 352.92 576.816 352.2C577.883 351.453 578.629 350.467 579.056 349.24H582.976C582.389 351.347 581.216 353.067 579.456 354.4C577.696 355.707 575.509 356.36 572.896 356.36C570.816 356.36 568.949 355.893 567.296 354.96C565.669 354.027 564.389 352.707 563.456 351C562.523 349.267 562.056 347.267 562.056 345C562.056 342.733 562.509 340.747 563.416 339.04C564.323 337.333 565.589 336.027 567.216 335.12C568.869 334.187 570.763 333.72 572.896 333.72C574.976 333.72 576.816 334.173 578.416 335.08C580.016 335.987 581.243 337.24 582.096 338.84C582.976 340.413 583.416 342.2 583.416 344.2ZM579.656 343.44C579.656 342.053 579.349 340.867 578.736 339.88C578.123 338.867 577.283 338.107 576.216 337.6C575.176 337.067 574.016 336.8 572.736 336.8C570.896 336.8 569.323 337.387 568.016 338.56C566.736 339.733 566.003 341.36 565.816 343.44H579.656ZM586.861 344.96C586.861 342.72 587.314 340.76 588.221 339.08C589.127 337.373 590.367 336.053 591.941 335.12C593.541 334.187 595.314 333.72 597.261 333.72C599.181 333.72 600.847 334.133 602.261 334.96C603.674 335.787 604.727 336.827 605.421 338.08V334.08H609.101V356H605.421V351.92C604.701 353.2 603.621 354.267 602.181 355.12C600.767 355.947 599.114 356.36 597.221 356.36C595.274 356.36 593.514 355.88 591.941 354.92C590.367 353.96 589.127 352.613 588.221 350.88C587.314 349.147 586.861 347.173 586.861 344.96ZM605.421 345C605.421 343.347 605.087 341.907 604.421 340.68C603.754 339.453 602.847 338.52 601.701 337.88C600.581 337.213 599.341 336.88 597.981 336.88C596.621 336.88 595.381 337.2 594.261 337.84C593.141 338.48 592.247 339.413 591.581 340.64C590.914 341.867 590.581 343.307 590.581 344.96C590.581 346.64 590.914 348.107 591.581 349.36C592.247 350.587 593.141 351.533 594.261 352.2C595.381 352.84 596.621 353.16 597.981 353.16C599.341 353.16 600.581 352.84 601.701 352.2C602.847 351.533 603.754 350.587 604.421 349.36C605.087 348.107 605.421 346.653 605.421 345ZM618.892 326.4V356H615.252V326.4H618.892ZM626.976 330.52C626.282 330.52 625.696 330.28 625.216 329.8C624.736 329.32 624.496 328.733 624.496 328.04C624.496 327.347 624.736 326.76 625.216 326.28C625.696 325.8 626.282 325.56 626.976 325.56C627.642 325.56 628.202 325.8 628.656 326.28C629.136 326.76 629.376 327.347 629.376 328.04C629.376 328.733 629.136 329.32 628.656 329.8C628.202 330.28 627.642 330.52 626.976 330.52ZM628.736 334.08V356H625.096V334.08H628.736ZM637.659 353H648.419V356H633.499V353L644.139 337.04H633.579V334.08H648.339V337.04L637.659 353ZM651.783 344.96C651.783 342.72 652.236 340.76 653.143 339.08C654.049 337.373 655.289 336.053 656.863 335.12C658.463 334.187 660.236 333.72 662.183 333.72C664.103 333.72 665.769 334.133 667.183 334.96C668.596 335.787 669.649 336.827 670.343 338.08V334.08H674.023V356H670.343V351.92C669.623 353.2 668.543 354.267 667.103 355.12C665.689 355.947 664.036 356.36 662.143 356.36C660.196 356.36 658.436 355.88 656.863 354.92C655.289 353.96 654.049 352.613 653.143 350.88C652.236 349.147 651.783 347.173 651.783 344.96ZM670.343 345C670.343 343.347 670.009 341.907 669.343 340.68C668.676 339.453 667.769 338.52 666.623 337.88C665.503 337.213 664.263 336.88 662.903 336.88C661.543 336.88 660.303 337.2 659.183 337.84C658.063 338.48 657.169 339.413 656.503 340.64C655.836 341.867 655.503 343.307 655.503 344.96C655.503 346.64 655.836 348.107 656.503 349.36C657.169 350.587 658.063 351.533 659.183 352.2C660.303 352.84 661.543 353.16 662.903 353.16C664.263 353.16 665.503 352.84 666.623 352.2C667.769 351.533 668.676 350.587 669.343 349.36C670.009 348.107 670.343 346.653 670.343 345ZM706.534 333.68C708.24 333.68 709.76 334.04 711.094 334.76C712.427 335.453 713.48 336.507 714.254 337.92C715.027 339.333 715.414 341.053 715.414 343.08V356H711.814V343.6C711.814 341.413 711.267 339.747 710.174 338.6C709.107 337.427 707.654 336.84 705.814 336.84C703.92 336.84 702.414 337.453 701.294 338.68C700.174 339.88 699.614 341.627 699.614 343.92V356H696.014V343.6C696.014 341.413 695.467 339.747 694.374 338.6C693.307 337.427 691.854 336.84 690.014 336.84C688.12 336.84 686.614 337.453 685.494 338.68C684.374 339.88 683.814 341.627 683.814 343.92V356H680.174V334.08H683.814V337.24C684.534 336.093 685.494 335.213 686.694 334.6C687.92 333.987 689.267 333.68 690.734 333.68C692.574 333.68 694.2 334.093 695.614 334.92C697.027 335.747 698.08 336.96 698.774 338.56C699.387 337.013 700.4 335.813 701.814 334.96C703.227 334.107 704.8 333.68 706.534 333.68ZM730.945 356.36C728.891 356.36 727.025 355.893 725.345 354.96C723.691 354.027 722.385 352.707 721.425 351C720.491 349.267 720.025 347.267 720.025 345C720.025 342.76 720.505 340.787 721.465 339.08C722.451 337.347 723.785 336.027 725.465 335.12C727.145 334.187 729.025 333.72 731.105 333.72C733.185 333.72 735.065 334.187 736.745 335.12C738.425 336.027 739.745 337.333 740.705 339.04C741.691 340.747 742.185 342.733 742.185 345C742.185 347.267 741.678 349.267 740.665 351C739.678 352.707 738.331 354.027 736.625 354.96C734.918 355.893 733.025 356.36 730.945 356.36ZM730.945 353.16C732.251 353.16 733.478 352.853 734.625 352.24C735.771 351.627 736.691 350.707 737.385 349.48C738.105 348.253 738.465 346.76 738.465 345C738.465 343.24 738.118 341.747 737.425 340.52C736.731 339.293 735.825 338.387 734.705 337.8C733.585 337.187 732.371 336.88 731.065 336.88C729.731 336.88 728.505 337.187 727.385 337.8C726.291 338.387 725.411 339.293 724.745 340.52C724.078 341.747 723.745 343.24 723.745 345C723.745 346.787 724.065 348.293 724.705 349.52C725.371 350.747 726.251 351.667 727.345 352.28C728.438 352.867 729.638 353.16 730.945 353.16ZM754.731 356.36C753.051 356.36 751.544 356.08 750.211 355.52C748.877 354.933 747.824 354.133 747.051 353.12C746.277 352.08 745.851 350.893 745.771 349.56H749.531C749.637 350.653 750.144 351.547 751.051 352.24C751.984 352.933 753.197 353.28 754.691 353.28C756.077 353.28 757.171 352.973 757.971 352.36C758.771 351.747 759.171 350.973 759.171 350.04C759.171 349.08 758.744 348.373 757.891 347.92C757.037 347.44 755.717 346.973 753.931 346.52C752.304 346.093 750.971 345.667 749.931 345.24C748.917 344.787 748.037 344.133 747.291 343.28C746.571 342.4 746.211 341.253 746.211 339.84C746.211 338.72 746.544 337.693 747.211 336.76C747.877 335.827 748.824 335.093 750.051 334.56C751.277 334 752.677 333.72 754.251 333.72C756.677 333.72 758.637 334.333 760.131 335.56C761.624 336.787 762.424 338.467 762.531 340.6H758.891C758.811 339.453 758.344 338.533 757.491 337.84C756.664 337.147 755.544 336.8 754.131 336.8C752.824 336.8 751.784 337.08 751.011 337.64C750.237 338.2 749.851 338.933 749.851 339.84C749.851 340.56 750.077 341.16 750.531 341.64C751.011 342.093 751.597 342.467 752.291 342.76C753.011 343.027 753.997 343.333 755.251 343.68C756.824 344.107 758.104 344.533 759.091 344.96C760.077 345.36 760.917 345.973 761.611 346.8C762.331 347.627 762.704 348.707 762.731 350.04C762.731 351.24 762.397 352.32 761.731 353.28C761.064 354.24 760.117 355 758.891 355.56C757.691 356.093 756.304 356.36 754.731 356.36ZM782.173 326.4V356H778.533V326.4H782.173ZM787.017 344.96C787.017 342.72 787.47 340.76 788.377 339.08C789.284 337.373 790.524 336.053 792.097 335.12C793.697 334.187 795.47 333.72 797.417 333.72C799.337 333.72 801.004 334.133 802.417 334.96C803.83 335.787 804.884 336.827 805.577 338.08V334.08H809.257V356H805.577V351.92C804.857 353.2 803.777 354.267 802.337 355.12C800.924 355.947 799.27 356.36 797.377 356.36C795.43 356.36 793.67 355.88 792.097 354.92C790.524 353.96 789.284 352.613 788.377 350.88C787.47 349.147 787.017 347.173 787.017 344.96ZM805.577 345C805.577 343.347 805.244 341.907 804.577 340.68C803.91 339.453 803.004 338.52 801.857 337.88C800.737 337.213 799.497 336.88 798.137 336.88C796.777 336.88 795.537 337.2 794.417 337.84C793.297 338.48 792.404 339.413 791.737 340.64C791.07 341.867 790.737 343.307 790.737 344.96C790.737 346.64 791.07 348.107 791.737 349.36C792.404 350.587 793.297 351.533 794.417 352.2C795.537 352.84 796.777 353.16 798.137 353.16C799.497 353.16 800.737 352.84 801.857 352.2C803.004 351.533 803.91 350.587 804.577 349.36C805.244 348.107 805.577 346.653 805.577 345ZM823.168 356.36C821.488 356.36 819.981 356.08 818.648 355.52C817.315 354.933 816.261 354.133 815.488 353.12C814.715 352.08 814.288 350.893 814.208 349.56H817.968C818.075 350.653 818.581 351.547 819.488 352.24C820.421 352.933 821.635 353.28 823.128 353.28C824.515 353.28 825.608 352.973 826.408 352.36C827.208 351.747 827.608 350.973 827.608 350.04C827.608 349.08 827.181 348.373 826.328 347.92C825.475 347.44 824.155 346.973 822.368 346.52C820.741 346.093 819.408 345.667 818.368 345.24C817.355 344.787 816.475 344.133 815.728 343.28C815.008 342.4 814.648 341.253 814.648 339.84C814.648 338.72 814.981 337.693 815.648 336.76C816.315 335.827 817.261 335.093 818.488 334.56C819.715 334 821.115 333.72 822.688 333.72C825.115 333.72 827.075 334.333 828.568 335.56C830.061 336.787 830.861 338.467 830.968 340.6H827.328C827.248 339.453 826.781 338.533 825.928 337.84C825.101 337.147 823.981 336.8 822.568 336.8C821.261 336.8 820.221 337.08 819.448 337.64C818.675 338.2 818.288 338.933 818.288 339.84C818.288 340.56 818.515 341.16 818.968 341.64C819.448 342.093 820.035 342.467 820.728 342.76C821.448 343.027 822.435 343.333 823.688 343.68C825.261 344.107 826.541 344.533 827.528 344.96C828.515 345.36 829.355 345.973 830.048 346.8C830.768 347.627 831.141 348.707 831.168 350.04C831.168 351.24 830.835 352.32 830.168 353.28C829.501 354.24 828.555 355 827.328 355.56C826.128 356.093 824.741 356.36 823.168 356.36ZM866.971 344.2C866.971 344.893 866.931 345.627 866.851 346.4H849.331C849.464 348.56 850.197 350.253 851.531 351.48C852.891 352.68 854.531 353.28 856.451 353.28C858.024 353.28 859.331 352.92 860.371 352.2C861.437 351.453 862.184 350.467 862.611 349.24H866.531C865.944 351.347 864.771 353.067 863.011 354.4C861.251 355.707 859.064 356.36 856.451 356.36C854.371 356.36 852.504 355.893 850.851 354.96C849.224 354.027 847.944 352.707 847.011 351C846.077 349.267 845.611 347.267 845.611 345C845.611 342.733 846.064 340.747 846.971 339.04C847.877 337.333 849.144 336.027 850.771 335.12C852.424 334.187 854.317 333.72 856.451 333.72C858.531 333.72 860.371 334.173 861.971 335.08C863.571 335.987 864.797 337.24 865.651 338.84C866.531 340.413 866.971 342.2 866.971 344.2ZM863.211 343.44C863.211 342.053 862.904 340.867 862.291 339.88C861.677 338.867 860.837 338.107 859.771 337.6C858.731 337.067 857.571 336.8 856.291 336.8C854.451 336.8 852.877 337.387 851.571 338.56C850.291 339.733 849.557 341.36 849.371 343.44H863.211ZM882.455 333.68C885.122 333.68 887.282 334.493 888.935 336.12C890.589 337.72 891.415 340.04 891.415 343.08V356H887.815V343.6C887.815 341.413 887.269 339.747 886.175 338.6C885.082 337.427 883.589 336.84 881.695 336.84C879.775 336.84 878.242 337.44 877.095 338.64C875.975 339.84 875.415 341.587 875.415 343.88V356H871.775V334.08H875.415V337.2C876.135 336.08 877.109 335.213 878.335 334.6C879.589 333.987 880.962 333.68 882.455 333.68ZM901.801 337.08V350C901.801 351.067 902.028 351.827 902.481 352.28C902.935 352.707 903.721 352.92 904.841 352.92H907.521V356H904.241C902.215 356 900.695 355.533 899.681 354.6C898.668 353.667 898.161 352.133 898.161 350V337.08H895.321V334.08H898.161V328.56H901.801V334.08H907.521V337.08H901.801ZM915.572 337.64C916.212 336.387 917.118 335.413 918.292 334.72C919.492 334.027 920.945 333.68 922.652 333.68V337.44H921.692C917.612 337.44 915.572 339.653 915.572 344.08V356H911.932V334.08H915.572V337.64ZM946.853 344.2C946.853 344.893 946.813 345.627 946.733 346.4H929.213C929.347 348.56 930.08 350.253 931.413 351.48C932.773 352.68 934.413 353.28 936.333 353.28C937.907 353.28 939.213 352.92 940.253 352.2C941.32 351.453 942.067 350.467 942.493 349.24H946.413C945.827 351.347 944.653 353.067 942.893 354.4C941.133 355.707 938.947 356.36 936.333 356.36C934.253 356.36 932.387 355.893 930.733 354.96C929.107 354.027 927.827 352.707 926.893 351C925.96 349.267 925.493 347.267 925.493 345C925.493 342.733 925.947 340.747 926.853 339.04C927.76 337.333 929.027 336.027 930.653 335.12C932.307 334.187 934.2 333.72 936.333 333.72C938.413 333.72 940.253 334.173 941.853 335.08C943.453 335.987 944.68 337.24 945.533 338.84C946.413 340.413 946.853 342.2 946.853 344.2ZM943.093 343.44C943.093 342.053 942.787 340.867 942.173 339.88C941.56 338.867 940.72 338.107 939.653 337.6C938.613 337.067 937.453 336.8 936.173 336.8C934.333 336.8 932.76 337.387 931.453 338.56C930.173 339.733 929.44 341.36 929.253 343.44H943.093ZM960.698 333.72C962.591 333.72 964.245 334.133 965.658 334.96C967.098 335.787 968.165 336.827 968.858 338.08V334.08H972.538V356.48C972.538 358.48 972.111 360.253 971.258 361.8C970.405 363.373 969.178 364.6 967.578 365.48C966.005 366.36 964.165 366.8 962.058 366.8C959.178 366.8 956.778 366.12 954.858 364.76C952.938 363.4 951.805 361.547 951.458 359.2H955.058C955.458 360.533 956.285 361.6 957.538 362.4C958.791 363.227 960.298 363.64 962.058 363.64C964.058 363.64 965.685 363.013 966.938 361.76C968.218 360.507 968.858 358.747 968.858 356.48V351.88C968.138 353.16 967.071 354.227 965.658 355.08C964.245 355.933 962.591 356.36 960.698 356.36C958.751 356.36 956.978 355.88 955.378 354.92C953.805 353.96 952.565 352.613 951.658 350.88C950.751 349.147 950.298 347.173 950.298 344.96C950.298 342.72 950.751 340.76 951.658 339.08C952.565 337.373 953.805 336.053 955.378 335.12C956.978 334.187 958.751 333.72 960.698 333.72ZM968.858 345C968.858 343.347 968.525 341.907 967.858 340.68C967.191 339.453 966.285 338.52 965.138 337.88C964.018 337.213 962.778 336.88 961.418 336.88C960.058 336.88 958.818 337.2 957.698 337.84C956.578 338.48 955.685 339.413 955.018 340.64C954.351 341.867 954.018 343.307 954.018 344.96C954.018 346.64 954.351 348.107 955.018 349.36C955.685 350.587 956.578 351.533 957.698 352.2C958.818 352.84 960.058 353.16 961.418 353.16C962.778 353.16 964.018 352.84 965.138 352.2C966.285 351.533 967.191 350.587 967.858 349.36C968.525 348.107 968.858 346.653 968.858 345ZM977.329 344.96C977.329 342.72 977.783 340.76 978.689 339.08C979.596 337.373 980.836 336.053 982.409 335.12C984.009 334.187 985.783 333.72 987.729 333.72C989.649 333.72 991.316 334.133 992.729 334.96C994.143 335.787 995.196 336.827 995.889 338.08V334.08H999.569V356H995.889V351.92C995.169 353.2 994.089 354.267 992.649 355.12C991.236 355.947 989.583 356.36 987.689 356.36C985.743 356.36 983.983 355.88 982.409 354.92C980.836 353.96 979.596 352.613 978.689 350.88C977.783 349.147 977.329 347.173 977.329 344.96ZM995.889 345C995.889 343.347 995.556 341.907 994.889 340.68C994.223 339.453 993.316 338.52 992.169 337.88C991.049 337.213 989.809 336.88 988.449 336.88C987.089 336.88 985.849 337.2 984.729 337.84C983.609 338.48 982.716 339.413 982.049 340.64C981.383 341.867 981.049 343.307 981.049 344.96C981.049 346.64 981.383 348.107 982.049 349.36C982.716 350.587 983.609 351.533 984.729 352.2C985.849 352.84 987.089 353.16 988.449 353.16C989.809 353.16 991.049 352.84 992.169 352.2C993.316 351.533 994.223 350.587 994.889 349.36C995.556 348.107 995.889 346.653 995.889 345ZM1013.48 356.36C1011.8 356.36 1010.29 356.08 1008.96 355.52C1007.63 354.933 1006.57 354.133 1005.8 353.12C1005.03 352.08 1004.6 350.893 1004.52 349.56H1008.28C1008.39 350.653 1008.89 351.547 1009.8 352.24C1010.73 352.933 1011.95 353.28 1013.44 353.28C1014.83 353.28 1015.92 352.973 1016.72 352.36C1017.52 351.747 1017.92 350.973 1017.92 350.04C1017.92 349.08 1017.49 348.373 1016.64 347.92C1015.79 347.44 1014.47 346.973 1012.68 346.52C1011.05 346.093 1009.72 345.667 1008.68 345.24C1007.67 344.787 1006.79 344.133 1006.04 343.28C1005.32 342.4 1004.96 341.253 1004.96 339.84C1004.96 338.72 1005.29 337.693 1005.96 336.76C1006.63 335.827 1007.57 335.093 1008.8 334.56C1010.03 334 1011.43 333.72 1013 333.72C1015.43 333.72 1017.39 334.333 1018.88 335.56C1020.37 336.787 1021.17 338.467 1021.28 340.6H1017.64C1017.56 339.453 1017.09 338.533 1016.24 337.84C1015.41 337.147 1014.29 336.8 1012.88 336.8C1011.57 336.8 1010.53 337.08 1009.76 337.64C1008.99 338.2 1008.6 338.933 1008.6 339.84C1008.6 340.56 1008.83 341.16 1009.28 341.64C1009.76 342.093 1010.35 342.467 1011.04 342.76C1011.76 343.027 1012.75 343.333 1014 343.68C1015.57 344.107 1016.85 344.533 1017.84 344.96C1018.83 345.36 1019.67 345.973 1020.36 346.8C1021.08 347.627 1021.45 348.707 1021.48 350.04C1021.48 351.24 1021.15 352.32 1020.48 353.28C1019.81 354.24 1018.87 355 1017.64 355.56C1016.44 356.093 1015.05 356.36 1013.48 356.36ZM1040.92 326.4V356H1037.28V326.4H1040.92ZM1056.69 356.36C1054.63 356.36 1052.77 355.893 1051.09 354.96C1049.43 354.027 1048.13 352.707 1047.17 351C1046.23 349.267 1045.77 347.267 1045.77 345C1045.77 342.76 1046.25 340.787 1047.21 339.08C1048.19 337.347 1049.53 336.027 1051.21 335.12C1052.89 334.187 1054.77 333.72 1056.85 333.72C1058.93 333.72 1060.81 334.187 1062.49 335.12C1064.17 336.027 1065.49 337.333 1066.45 339.04C1067.43 340.747 1067.93 342.733 1067.93 345C1067.93 347.267 1067.42 349.267 1066.41 351C1065.42 352.707 1064.07 354.027 1062.37 354.96C1060.66 355.893 1058.77 356.36 1056.69 356.36ZM1056.69 353.16C1057.99 353.16 1059.22 352.853 1060.37 352.24C1061.51 351.627 1062.43 350.707 1063.13 349.48C1063.85 348.253 1064.21 346.76 1064.21 345C1064.21 343.24 1063.86 341.747 1063.17 340.52C1062.47 339.293 1061.57 338.387 1060.45 337.8C1059.33 337.187 1058.11 336.88 1056.81 336.88C1055.47 336.88 1054.25 337.187 1053.13 337.8C1052.03 338.387 1051.15 339.293 1050.49 340.52C1049.82 341.747 1049.49 343.24 1049.49 345C1049.49 346.787 1049.81 348.293 1050.45 349.52C1051.11 350.747 1051.99 351.667 1053.09 352.28C1054.18 352.867 1055.38 353.16 1056.69 353.16ZM1082.02 344.96C1082.02 342.72 1082.47 340.76 1083.38 339.08C1084.28 337.373 1085.52 336.053 1087.1 335.12C1088.7 334.187 1090.47 333.72 1092.42 333.72C1094.34 333.72 1096 334.133 1097.42 334.96C1098.83 335.787 1099.88 336.827 1100.58 338.08V334.08H1104.26V356H1100.58V351.92C1099.86 353.2 1098.78 354.267 1097.34 355.12C1095.92 355.947 1094.27 356.36 1092.38 356.36C1090.43 356.36 1088.67 355.88 1087.1 354.92C1085.52 353.96 1084.28 352.613 1083.38 350.88C1082.47 349.147 1082.02 347.173 1082.02 344.96ZM1100.58 345C1100.58 343.347 1100.24 341.907 1099.58 340.68C1098.91 339.453 1098 338.52 1096.86 337.88C1095.74 337.213 1094.5 336.88 1093.14 336.88C1091.78 336.88 1090.54 337.2 1089.42 337.84C1088.3 338.48 1087.4 339.413 1086.74 340.64C1086.07 341.867 1085.74 343.307 1085.74 344.96C1085.74 346.64 1086.07 348.107 1086.74 349.36C1087.4 350.587 1088.3 351.533 1089.42 352.2C1090.54 352.84 1091.78 353.16 1093.14 353.16C1094.5 353.16 1095.74 352.84 1096.86 352.2C1098 351.533 1098.91 350.587 1099.58 349.36C1100.24 348.107 1100.58 346.653 1100.58 345ZM1121.09 333.68C1123.75 333.68 1125.91 334.493 1127.57 336.12C1129.22 337.72 1130.05 340.04 1130.05 343.08V356H1126.45V343.6C1126.45 341.413 1125.9 339.747 1124.81 338.6C1123.71 337.427 1122.22 336.84 1120.33 336.84C1118.41 336.84 1116.87 337.44 1115.73 338.64C1114.61 339.84 1114.05 341.587 1114.05 343.88V356H1110.41V334.08H1114.05V337.2C1114.77 336.08 1115.74 335.213 1116.97 334.6C1118.22 333.987 1119.59 333.68 1121.09 333.68ZM1140.43 337.08V350C1140.43 351.067 1140.66 351.827 1141.11 352.28C1141.57 352.707 1142.35 352.92 1143.47 352.92H1146.15V356H1142.87C1140.85 356 1139.33 355.533 1138.31 354.6C1137.3 353.667 1136.79 352.133 1136.79 350V337.08H1133.95V334.08H1136.79V328.56H1140.43V334.08H1146.15V337.08H1140.43ZM1170.56 344.2C1170.56 344.893 1170.52 345.627 1170.44 346.4H1152.92C1153.06 348.56 1153.79 350.253 1155.12 351.48C1156.48 352.68 1158.12 353.28 1160.04 353.28C1161.62 353.28 1162.92 352.92 1163.96 352.2C1165.03 351.453 1165.78 350.467 1166.2 349.24H1170.12C1169.54 351.347 1168.36 353.067 1166.6 354.4C1164.84 355.707 1162.66 356.36 1160.04 356.36C1157.96 356.36 1156.1 355.893 1154.44 354.96C1152.82 354.027 1151.54 352.707 1150.6 351C1149.67 349.267 1149.2 347.267 1149.2 345C1149.2 342.733 1149.66 340.747 1150.56 339.04C1151.47 337.333 1152.74 336.027 1154.36 335.12C1156.02 334.187 1157.91 333.72 1160.04 333.72C1162.12 333.72 1163.96 334.173 1165.56 335.08C1167.16 335.987 1168.39 337.24 1169.24 338.84C1170.12 340.413 1170.56 342.2 1170.56 344.2ZM1166.8 343.44C1166.8 342.053 1166.5 340.867 1165.88 339.88C1165.27 338.867 1164.43 338.107 1163.36 337.6C1162.32 337.067 1161.16 336.8 1159.88 336.8C1158.04 336.8 1156.47 337.387 1155.16 338.56C1153.88 339.733 1153.15 341.36 1152.96 343.44H1166.8ZM1183.13 356.36C1181.45 356.36 1179.94 356.08 1178.61 355.52C1177.28 354.933 1176.22 354.133 1175.45 353.12C1174.68 352.08 1174.25 350.893 1174.17 349.56H1177.93C1178.04 350.653 1178.54 351.547 1179.45 352.24C1180.38 352.933 1181.6 353.28 1183.09 353.28C1184.48 353.28 1185.57 352.973 1186.37 352.36C1187.17 351.747 1187.57 350.973 1187.57 350.04C1187.57 349.08 1187.14 348.373 1186.29 347.92C1185.44 347.44 1184.12 346.973 1182.33 346.52C1180.7 346.093 1179.37 345.667 1178.33 345.24C1177.32 344.787 1176.44 344.133 1175.69 343.28C1174.97 342.4 1174.61 341.253 1174.61 339.84C1174.61 338.72 1174.94 337.693 1175.61 336.76C1176.28 335.827 1177.22 335.093 1178.45 334.56C1179.68 334 1181.08 333.72 1182.65 333.72C1185.08 333.72 1187.04 334.333 1188.53 335.56C1190.02 336.787 1190.82 338.467 1190.93 340.6H1187.29C1187.21 339.453 1186.74 338.533 1185.89 337.84C1185.06 337.147 1183.94 336.8 1182.53 336.8C1181.22 336.8 1180.18 337.08 1179.41 337.64C1178.64 338.2 1178.25 338.933 1178.25 339.84C1178.25 340.56 1178.48 341.16 1178.93 341.64C1179.41 342.093 1180 342.467 1180.69 342.76C1181.41 343.027 1182.4 343.333 1183.65 343.68C1185.22 344.107 1186.5 344.533 1187.49 344.96C1188.48 345.36 1189.32 345.973 1190.01 346.8C1190.73 347.627 1191.1 348.707 1191.13 350.04C1191.13 351.24 1190.8 352.32 1190.13 353.28C1189.46 354.24 1188.52 355 1187.29 355.56C1186.09 356.093 1184.7 356.36 1183.13 356.36ZM1210.57 338.12C1211.29 336.867 1212.36 335.827 1213.77 335C1215.21 334.147 1216.88 333.72 1218.77 333.72C1220.72 333.72 1222.48 334.187 1224.05 335.12C1225.65 336.053 1226.9 337.373 1227.81 339.08C1228.72 340.76 1229.17 342.72 1229.17 344.96C1229.17 347.173 1228.72 349.147 1227.81 350.88C1226.9 352.613 1225.65 353.96 1224.05 354.92C1222.48 355.88 1220.72 356.36 1218.77 356.36C1216.9 356.36 1215.25 355.947 1213.81 355.12C1212.4 354.267 1211.32 353.213 1210.57 351.96V366.4H1206.93V334.08H1210.57V338.12ZM1225.45 344.96C1225.45 343.307 1225.12 341.867 1224.45 340.64C1223.78 339.413 1222.88 338.48 1221.73 337.84C1220.61 337.2 1219.37 336.88 1218.01 336.88C1216.68 336.88 1215.44 337.213 1214.29 337.88C1213.17 338.52 1212.26 339.467 1211.57 340.72C1210.9 341.947 1210.57 343.373 1210.57 345C1210.57 346.653 1210.9 348.107 1211.57 349.36C1212.26 350.587 1213.17 351.533 1214.29 352.2C1215.44 352.84 1216.68 353.16 1218.01 353.16C1219.37 353.16 1220.61 352.84 1221.73 352.2C1222.88 351.533 1223.78 350.587 1224.45 349.36C1225.12 348.107 1225.45 346.64 1225.45 344.96ZM1243.52 356.36C1241.47 356.36 1239.6 355.893 1237.92 354.96C1236.27 354.027 1234.96 352.707 1234 351C1233.07 349.267 1232.6 347.267 1232.6 345C1232.6 342.76 1233.08 340.787 1234.04 339.08C1235.03 337.347 1236.36 336.027 1238.04 335.12C1239.72 334.187 1241.6 333.72 1243.68 333.72C1245.76 333.72 1247.64 334.187 1249.32 335.12C1251 336.027 1252.32 337.333 1253.28 339.04C1254.27 340.747 1254.76 342.733 1254.76 345C1254.76 347.267 1254.26 349.267 1253.24 351C1252.26 352.707 1250.91 354.027 1249.2 354.96C1247.5 355.893 1245.6 356.36 1243.52 356.36ZM1243.52 353.16C1244.83 353.16 1246.06 352.853 1247.2 352.24C1248.35 351.627 1249.27 350.707 1249.96 349.48C1250.68 348.253 1251.04 346.76 1251.04 345C1251.04 343.24 1250.7 341.747 1250 340.52C1249.31 339.293 1248.4 338.387 1247.28 337.8C1246.16 337.187 1244.95 336.88 1243.64 336.88C1242.31 336.88 1241.08 337.187 1239.96 337.8C1238.87 338.387 1237.99 339.293 1237.32 340.52C1236.66 341.747 1236.32 343.24 1236.32 345C1236.32 346.787 1236.64 348.293 1237.28 349.52C1237.95 350.747 1238.83 351.667 1239.92 352.28C1241.02 352.867 1242.22 353.16 1243.52 353.16ZM1267.31 356.36C1265.63 356.36 1264.12 356.08 1262.79 355.52C1261.46 354.933 1260.4 354.133 1259.63 353.12C1258.86 352.08 1258.43 350.893 1258.35 349.56H1262.11C1262.22 350.653 1262.72 351.547 1263.63 352.24C1264.56 352.933 1265.78 353.28 1267.27 353.28C1268.66 353.28 1269.75 352.973 1270.55 352.36C1271.35 351.747 1271.75 350.973 1271.75 350.04C1271.75 349.08 1271.32 348.373 1270.47 347.92C1269.62 347.44 1268.3 346.973 1266.51 346.52C1264.88 346.093 1263.55 345.667 1262.51 345.24C1261.5 344.787 1260.62 344.133 1259.87 343.28C1259.15 342.4 1258.79 341.253 1258.79 339.84C1258.79 338.72 1259.12 337.693 1259.79 336.76C1260.46 335.827 1261.4 335.093 1262.63 334.56C1263.86 334 1265.26 333.72 1266.83 333.72C1269.26 333.72 1271.22 334.333 1272.71 335.56C1274.2 336.787 1275 338.467 1275.11 340.6H1271.47C1271.39 339.453 1270.92 338.533 1270.07 337.84C1269.24 337.147 1268.12 336.8 1266.71 336.8C1265.4 336.8 1264.36 337.08 1263.59 337.64C1262.82 338.2 1262.43 338.933 1262.43 339.84C1262.43 340.56 1262.66 341.16 1263.11 341.64C1263.59 342.093 1264.18 342.467 1264.87 342.76C1265.59 343.027 1266.58 343.333 1267.83 343.68C1269.4 344.107 1270.68 344.533 1271.67 344.96C1272.66 345.36 1273.5 345.973 1274.19 346.8C1274.91 347.627 1275.28 348.707 1275.31 350.04C1275.31 351.24 1274.98 352.32 1274.31 353.28C1273.64 354.24 1272.7 355 1271.47 355.56C1270.27 356.093 1268.88 356.36 1267.31 356.36ZM1282.33 330.52C1281.63 330.52 1281.05 330.28 1280.57 329.8C1280.09 329.32 1279.85 328.733 1279.85 328.04C1279.85 327.347 1280.09 326.76 1280.57 326.28C1281.05 325.8 1281.63 325.56 1282.33 325.56C1282.99 325.56 1283.55 325.8 1284.01 326.28C1284.49 326.76 1284.73 327.347 1284.73 328.04C1284.73 328.733 1284.49 329.32 1284.01 329.8C1283.55 330.28 1282.99 330.52 1282.33 330.52ZM1284.09 334.08V356H1280.45V334.08H1284.09ZM1293.93 338.16C1294.68 336.853 1295.77 335.787 1297.21 334.96C1298.65 334.133 1300.29 333.72 1302.13 333.72C1304.1 333.72 1305.88 334.187 1307.45 335.12C1309.02 336.053 1310.26 337.373 1311.17 339.08C1312.08 340.76 1312.53 342.72 1312.53 344.96C1312.53 347.173 1312.08 349.147 1311.17 350.88C1310.26 352.613 1309.01 353.96 1307.41 354.92C1305.84 355.88 1304.08 356.36 1302.13 356.36C1300.24 356.36 1298.57 355.947 1297.13 355.12C1295.72 354.293 1294.65 353.24 1293.93 351.96V356H1290.29V326.4H1293.93V338.16ZM1308.81 344.96C1308.81 343.307 1308.48 341.867 1307.81 340.64C1307.14 339.413 1306.24 338.48 1305.09 337.84C1303.97 337.2 1302.73 336.88 1301.37 336.88C1300.04 336.88 1298.8 337.213 1297.65 337.88C1296.53 338.52 1295.62 339.467 1294.93 340.72C1294.26 341.947 1293.93 343.373 1293.93 345C1293.93 346.653 1294.26 348.107 1294.93 349.36C1295.62 350.587 1296.53 351.533 1297.65 352.2C1298.8 352.84 1300.04 353.16 1301.37 353.16C1302.73 353.16 1303.97 352.84 1305.09 352.2C1306.24 351.533 1307.14 350.587 1307.81 349.36C1308.48 348.107 1308.81 346.64 1308.81 344.96ZM1320.96 326.4V356H1317.32V326.4H1320.96ZM1347.17 344.2C1347.17 344.893 1347.13 345.627 1347.05 346.4H1329.53C1329.66 348.56 1330.39 350.253 1331.73 351.48C1333.09 352.68 1334.73 353.28 1336.65 353.28C1338.22 353.28 1339.53 352.92 1340.57 352.2C1341.63 351.453 1342.38 350.467 1342.81 349.24H1346.73C1346.14 351.347 1344.97 353.067 1343.21 354.4C1341.45 355.707 1339.26 356.36 1336.65 356.36C1334.57 356.36 1332.7 355.893 1331.05 354.96C1329.42 354.027 1328.14 352.707 1327.21 351C1326.27 349.267 1325.81 347.267 1325.81 345C1325.81 342.733 1326.26 340.747 1327.17 339.04C1328.07 337.333 1329.34 336.027 1330.97 335.12C1332.62 334.187 1334.51 333.72 1336.65 333.72C1338.73 333.72 1340.57 334.173 1342.17 335.08C1343.77 335.987 1344.99 337.24 1345.85 338.84C1346.73 340.413 1347.17 342.2 1347.17 344.2ZM1343.41 343.44C1343.41 342.053 1343.1 340.867 1342.49 339.88C1341.87 338.867 1341.03 338.107 1339.97 337.6C1338.93 337.067 1337.77 336.8 1336.49 336.8C1334.65 336.8 1333.07 337.387 1331.77 338.56C1330.49 339.733 1329.75 341.36 1329.57 343.44H1343.41Z" fill="white"/>
<rect x="518" y="376" width="850" height="18" rx="9" fill="#D9D9D9" fill-opacity="0.24"/>
<ellipse cx="1254" cy="66" rx="38" ry="36" fill="#FF948A"/>
<ellipse cx="624.5" cy="532.5" rx="18.5" ry="17.5" fill="#FF948A"/>
<ellipse cx="1207.5" cy="503.5" rx="18.5" ry="17.5" fill="#FF948A"/>
<path d="M91 83C91 98.8475 77.2948 112 60 112C42.7052 112 29 98.8475 29 83C29 67.1525 42.7052 54 60 54C77.2948 54 91 67.1525 91 83Z" stroke="#FF948A" stroke-width="6"/>
<path d="M113 512C113 522.31 104.011 531 92.5 531C80.9887 531 72 522.31 72 512C72 501.69 80.9887 493 92.5 493C104.011 493 113 501.69 113 512Z" stroke="#FF948A" stroke-width="6"/>
<path d="M577 522C577 537.848 563.295 551 546 551C528.705 551 515 537.848 515 522C515 506.152 528.705 493 546 493C563.295 493 577 506.152 577 522Z" stroke="#FF948A" stroke-width="6"/>
<ellipse cx="683.5" cy="59.5" rx="17.5" ry="16.5" fill="#FF948A"/>
<ellipse cx="426.5" cy="542.5" rx="17.5" ry="16.5" fill="#FF948A"/>
<rect x="1346" y="155" width="3" height="15" rx="1.5" fill="#FF948A"/>
<rect x="1346" y="173" width="3" height="15" rx="1.5" fill="#FF948A"/>
<rect x="1346" y="170" width="3" height="15" rx="1.5" transform="rotate(90 1346 170)" fill="#FF948A"/>
<rect x="1364" y="170" width="3" height="15" rx="1.5" transform="rotate(90 1364 170)" fill="#FF948A"/>
<path d="M1383 65.5C1383 73.3532 1376.22 80 1367.5 80C1358.78 80 1352 73.3532 1352 65.5C1352 57.6468 1358.78 51 1367.5 51C1376.22 51 1383 57.6468 1383 65.5Z" stroke="#FF948A" stroke-width="6"/>
<path d="M1351 462.5C1351 470.353 1344.22 477 1335.5 477C1326.78 477 1320 470.353 1320 462.5C1320 454.647 1326.78 448 1335.5 448C1344.22 448 1351 454.647 1351 462.5Z" stroke="#FF948A" stroke-width="6"/>
<ellipse cx="255" cy="418" rx="168" ry="16" fill="#D9D9D9" fill-opacity="0.48"/>
<rect x="250" y="33" width="3" height="15" rx="1.5" fill="#FF8A7E"/>
<rect x="250" y="51" width="3" height="15" rx="1.5" fill="#FF8A7E"/>
<rect x="250" y="48" width="3" height="15" rx="1.5" transform="rotate(90 250 48)" fill="#FF8A7E"/>
<rect x="268" y="48" width="3" height="15" rx="1.5" transform="rotate(90 268 48)" fill="#FF8A7E"/>
<rect x="634" y="101" width="3" height="15" rx="1.5" fill="#FF8A7E"/>
<rect x="634" y="119" width="3" height="15" rx="1.5" fill="#FF8A7E"/>
<rect x="634" y="116" width="3" height="15" rx="1.5" transform="rotate(90 634 116)" fill="#FF8A7E"/>
<rect x="652" y="116" width="3" height="15" rx="1.5" transform="rotate(90 652 116)" fill="#FF8A7E"/>
<rect x="601" y="462" width="3" height="15" rx="1.5" fill="#FF8A7E"/>
<rect x="601" y="480" width="3" height="15" rx="1.5" fill="#FF8A7E"/>
<rect x="601" y="477" width="3" height="15" rx="1.5" transform="rotate(90 601 477)" fill="#FF8A7E"/>
<rect x="619" y="477" width="3" height="15" rx="1.5" transform="rotate(90 619 477)" fill="#FF8A7E"/>
<rect x="23" y="340" width="3" height="15" rx="1.5" fill="#FF8A7E"/>
<rect x="23" y="358" width="3" height="15" rx="1.5" fill="#FF8A7E"/>
<rect x="23" y="355" width="3" height="15" rx="1.5" transform="rotate(90 23 355)" fill="#FF8A7E"/>
<rect x="41" y="355" width="3" height="15" rx="1.5" transform="rotate(90 41 355)" fill="#FF8A7E"/>
<path d="M413 106C413 116.369 404.173 125 393 125C381.827 125 373 116.369 373 106C373 95.6309 381.827 87 393 87C404.173 87 413 95.6309 413 106Z" stroke="#FF948A" stroke-width="6"/>
</svg>
